<?xml version="1.0" encoding="UTF-8" standalone="no"?>
<svg id="svg4379" xmlns:rdf="http://www.w3.org/1999/02/22-rdf-syntax-ns#" xmlns="http://www.w3.org/2000/svg" height="100" viewBox="0 0 99.999997 99.999997" width="100" version="1.1" xmlns:cc="http://creativecommons.org/ns#" xmlns:dc="http://purl.org/dc/elements/1.1/">
 <metadata id="metadata20">
  <rdf:RDF>
   <cc:Work rdf:about="">
    <dc:format>image/svg+xml</dc:format>
    <dc:type rdf:resource="http://purl.org/dc/dcmitype/StillImage"/>
    <dc:title/>
   </cc:Work>
  </rdf:RDF>
 </metadata>
 <path id="path74" d="m39.643 100c18.738-0.002 31.902-12.54 39.916-23.728-7.362 7.316-17.424 11.566-27.988 11.566-3.8028 0-7.6741-0.55052-11.503-1.709-14.501-4.387-24.645-16.326-27.429-30.208-3.4863 8.737-12.699 38.368 20.128 43.531 2.371 0.373 4.661 0.548 6.876 0.548" fill-opacity=".28571"/>
 <g>
  <path id="path116" d="m57.189 11.433c-0.83573 2.7681 0.73181 5.6953 3.4999 6.5288 2.7703 0.84015 5.6931-0.7274 6.5288-3.4977l2.3303-7.7095c0.83795-2.7659-0.72518-5.6931-3.4955-6.5288-2.7703-0.83793-5.6931 0.7296-6.531 3.4999l-2.333 7.7074" fill="#e9eae9"/>
  <path id="path118" d="m13.577 36.659c-6.3434 20.978 5.516 43.124 26.491 49.47 20.982 6.345 43.124-5.519 49.467-26.494 6.348-20.972-5.514-43.121-26.491-49.467-20.975-6.3429-43.122 5.519-49.467 26.491" fill="#50ace4"/>
  <path id="path278" d="m52.235 85.474c1.132 0 2.2949-0.04643 3.491-0.13929 32.072-2.5182 31.791-39.869 31.791-39.869-5.3615 4.6053-10.807 6.3122-16.191 6.3122-7.7227 0-15.317-3.5109-22.355-7.0197-7.0373-3.5087-13.518-7.0197-19.009-7.0197-0.72518 0-1.4327 0.06185-2.1203 0.19235-14.78 2.7902-12.545 17.572-12.545 17.572s7.7515 29.971 36.938 29.971m31.99-32.907s0.25425 29.147-28.68 31.101c-1.0856 0.07512-2.1424 0.1106-3.1682 0.1106-26.328 0-33.314-23.383-33.314-23.383s-2.0142-11.53 11.315-13.705c0.62126-0.10165 1.2602-0.14808 1.9146-0.14808 4.9569 0 10.805 2.7371 17.155 5.4742 6.3497 2.7371 13.201 5.4742 20.168 5.4742 4.8574 0 9.7723-1.331 14.61-4.9237" fill="#3e7bc7"/>
  <path id="path280" d="m52.376 83.778c1.0259 0 2.0827-0.03532 3.1682-0.1106 28.934-1.9544 28.68-31.101 28.68-31.101-4.8375 3.5927-9.7524 4.9237-14.61 4.9237-6.9666 0-13.818-2.7371-20.168-5.4742-6.3498-2.7371-12.198-5.4742-17.155-5.4742-0.65442 0-1.2934 0.04643-1.9146 0.14808-13.33 2.1755-11.315 13.705-11.315 13.705s6.9865 23.383 33.314 23.383m-15.52-18.613c6.6328 0 15.985 2.8875 19.69 7.3911 4.3599 5.304 0.17466 9.3544-6.8362 9.3566-2.967 0-6.4382-0.72518-9.9823-2.3878-0.68317-0.31394-8.5916-2.4917-10.018-10.009-0.57925-3.0312 2.6642-4.3511 7.1457-4.3511" fill="#2c4ca7"/>
  <path id="path282" d="m68.971 30.323c4.4815 0 7.7272-1.3199 7.1457-4.3511-1.4194-7.5193-9.3367-9.6993-10.024-10.011-3.5441-1.6604-7.0152-2.3834-9.9801-2.3834-7.0086 0-11.189 4.0482-6.8273 9.3522 3.7055 4.5058 13.053 7.3955 19.686 7.3933m-9.2969-14.415c1.5145 0 3.2832 0.36702 5.0873 1.2138 0.35817 0.17245 4.4041 1.2801 5.136 5.1271 0.29627 1.5477-1.3597 2.222-3.6502 2.222-3.3938 0-8.1804-1.4791-10.073-3.7784-2.2264-2.715-0.08175-4.7844 3.4999-4.7844" fill="#79d3ef"/>
  <path id="path284" d="m66.247 24.471c2.2905 0 3.9465-0.67432 3.6502-2.222-0.73181-3.847-4.7778-4.9547-5.136-5.1271-1.8041-0.84677-3.5728-1.2138-5.0873-1.2138-3.5817 0-5.7263 2.0694-3.4999 4.7844 1.8925 2.2993 6.6792 3.7784 10.073 3.7784" fill="#abe4f1"/>
  <path id="path286" d="m82.723 36.609c1.3044 0 2.3546-1.0524 2.3546-2.3568 0-1.3022-1.0502-2.3458-2.3546-2.3458-1.3 0-2.3502 1.0436-2.3502 2.3458 0 1.3044 1.0502 2.3568 2.3502 2.3568" fill="#79d3ef"/>
  <path id="path288" d="m49.71 81.912c7.0108-0.0017 11.196-4.0526 6.8362-9.3566-3.7055-4.5036-13.058-7.3911-19.69-7.3911-4.4815 0-7.7249 1.3199-7.1457 4.3511 1.426 7.5171 9.3345 9.6949 10.018 10.009 3.5441 1.6626 7.0152 2.3878 9.9823 2.3878m-10.12-10.897c3.3915 0 8.1693 1.4747 10.06 3.7762 2.233 2.7172 0.0907 4.7844-3.4977 4.7844-1.5145 0-3.2854-0.36701-5.094-1.2116-0.35154-0.16804-4.3909-1.289-5.1271-5.1293-0.29405-1.5454 1.3663-2.2197 3.6591-2.2197" fill="#428bd2"/>
  <path id="path290" d="m46.152 79.576c3.5883 0 5.7307-2.0672 3.4977-4.7844-1.8903-2.3016-6.6681-3.7762-10.06-3.7762-2.2927 0-3.9531 0.67432-3.6591 2.2197 0.73624 3.8404 4.7756 4.9613 5.1271 5.1293 1.8085 0.84456 3.5795 1.2116 5.094 1.2116" fill="#5ac5ec"/>
 </g>
</svg>
