<?xml version="1.0" encoding="UTF-8" standalone="no"?>
<svg id="svg2" xmlns:rdf="http://www.w3.org/1999/02/22-rdf-syntax-ns#" xmlns="http://www.w3.org/2000/svg" xml:space="preserve" height="1066.7" width="1066.7" version="1.1" xmlns:cc="http://creativecommons.org/ns#" xmlns:dc="http://purl.org/dc/elements/1.1/" viewBox="0 0 1066.6667 1066.6667"><g id="g12" transform="matrix(.13333 0 0 -.13333 0 1066.7)"><path id="path30" d="m4074.8 1586.6c-1230.7 0-2228.3 89.19-2228.3 199.22 0 102.54 866.87 187 1981.2 197.99v-61.03c-739.5-10.6-1304.6-67.9-1304.6-137 0-76.61 694.71-138.73 1551.7-138.73 856.97 0 1551.7 62.12 1551.7 138.73 0 72.78-626.95 132.46-1424.3 138.25v60.63c1171.4-5.9 2101-92.69 2101-198.88 0-110.03-997.67-199.22-2228.3-199.22" fill="#40131b"/><path id="path32" d="m4074.8 1647.1c-856.96 0-1551.7 62.12-1551.7 138.73 0 69.09 565.08 126.38 1304.6 136.96v-41.59c-485.67-10.01-847.73-48.91-847.73-95.37 0-54.06 490.17-97.87 1094.8-97.87 604.64 0 1094.8 43.81 1094.8 97.87 0 50.2-422.83 91.58-967.49 97.22v41.03c797.39-5.79 1424.3-65.47 1424.3-138.25 0-76.61-694.72-138.73-1551.7-138.73" fill="#2e1418"/><path id="path34" d="m4074.8 1688c-604.64 0-1094.8 43.81-1094.8 97.87 0 46.46 362.06 85.36 847.73 95.37v-112.99s76.53-66.8 187.47-66.81c55.47 0 119.53 16.7 186.96 66.81v114.84c544.66-5.64 967.49-47.02 967.49-97.22 0-54.06-490.2-97.87-1094.8-97.87" fill="#271416"/><path id="path56" d="m2693.5 4104.9s-404.5-803.5-639.54-1011.2l43.74-114.79 43.73-207.71s207.7-81.99 232.3-71.05c24.6 10.92 297.9 21.86 347.09 38.25 49.2 16.4 202.25-60.13 251.44-76.52 49.2-16.39 174.92-60.12 196.78-54.66 21.87 5.46 154.88-191.31 178.57-207.71 23.67-16.4 154.86-120.25 182.19-120.25s120.25-27.34 163.98 0c43.73 27.32 158.52 136.65 185.85 153.04 27.32 16.4 114.79 54.66 153.05 43.74 38.26-10.93 73.25-76.53 126.81-82 53.57-5.46 250.34 43.72 266.75 43.72 16.39 0 114.79 43.74 163.97 43.74 49.19 0 218.65-65.59 256.9-65.59 38.27 0 142.13 5.47 191.33 76.52 49.18 71.06 262.36 187.68 317.03 198.61 54.66 10.93 399.01 539.31 399.01 539.31s-399.01 508.34-470.08 754.31c-71.06 245.98-453.68 174.91-453.68 174.91l-989.36-49.19-874.56 27.34-273.3-32.81" fill="#52a536"/><path id="path58" d="m3114.4 5149s-333.42-716.04-590.32-1044l71.06-109.31 169.45-158.52 131.18-131.18 245.97-54.67 273.3 49.2 202.25-16.41 348.01-10.93 231.39-76.52 207.7-60.12 191.31 131.18 169.46 131.19 225.93 21.86 167.62-16.4 169.45 136.66 103.85 131.18s-344.36 584.87-464.62 841.77c-120.25 256.91-311.56 327.97-311.56 327.97l-606.72-158.52-557.55-16.4-377.16 81.99" fill="#6fc649"/><path id="path60" d="m3449.6 5912.4s-258.72-524.73-510.16-757.96l47.38-94.73s145.75-54.66 153.04-65.61c7.29-10.93 76.53-149.39 87.46-149.39s163.99-69.24 200.42-58.31c36.44 10.93 211.35 10.93 236.87 21.86 25.5 10.94 156.68-36.44 189.49-47.37 32.78-10.93 127.53-123.89 147.57-123.89 20.05 0 213.18 80.16 224.12 102.03 10.93 21.86 76.53 58.3 116.6 65.6 40.08 7.28 123.92 7.27 153.05 14.57 29.15 7.29 116.61 61.94 160.33 54.65 43.73-7.28 156.69-36.44 185.85-10.93s149.41 236.87 149.41 236.87-314.67 538.54-412.42 835.92c-97.74 297.38-695.37 198.99-695.37 198.99l-433.64-222.3" fill="#52a536"/><path id="path62" d="m4029 7391.9s-353.46-1031.3-637.69-1366.5l-43.73-123.91 123.87-47.36 47.39-138.48s178.57-69.24 200.43-58.3c21.86 10.93 193.12-61.96 211.34-61.96 18.24 0 134.84 7.3 145.77 14.59 10.92 7.27 134.83 109.32 182.19 109.32 47.39 0 189.5-7.3 211.36 3.64 21.87 10.93 54.65 127.54 69.23 153.05 14.59 25.5 116.61 171.27 116.61 171.27s-455.49 535.68-626.77 1344.6" fill="#6fc649"/><path id="path64" d="m3827.7 2456.9v-688.72s172.18-150.32 374.43 0v713.32l-374.43-24.6" fill="#a62c59"/><path id="path84" d="m3903.5 7016.5 23.59 63.89s81.21 85.75 98.74 166.58c0 0 36.71-81 61.68-124.54l14.92-64.7s-58.22 67.12-71.97 102.71c0 0-49.32-92.99-126.96-143.94" fill="#459e38"/><path id="path100" d="m3988.1 5379.8c-35.66 0-71.75 10.5-101.27 35.15-76.36 63.74-78.12 92.97-155.52 107.68-4.36 0.83-8.83 1.21-13.4 1.21-30.8 0-66.08-17.51-102.53-35.01-36.46-17.5-74.09-35.01-109.61-35.01-17.2 0-33.91 4.11-49.74 14.31-86.09 55.42-51.93 157.73-47.84 232.88 4.11 75.17-12.29 96.25-12.29 96.25l19.95 31.67c6.41-0.91 11.97-5.91 16.94-17.23 24.6-56.03-34.16-244.6 95.66-276.03 18.79-4.55 35.57-6.44 50.78-6.44 37.06 0.01 64.8 11.21 89.42 22.41 24.62 11.21 46.13 22.41 70.78 22.41 10.48 0 21.54-2.03 33.63-6.95 68.43-27.84 101.42-98.99 194.22-98.98 16.54 0 34.98 2.26 55.85 7.42 138.02 34.16 124.35 153.04 240.51 168.08 8.72 1.13 17.15 1.65 25.33 1.65 42.69 0 78.52-14.02 112.06-28.04s64.8-28.05 98.39-28.04c12.13 0 24.57 1.83 37.51 6.14 73.63 24.55 58.01 158.38 61.85 244.67l26.98-54.26c-15.01-24.59-16.39-207.71-94.67-241.88-11.59-5.06-23.45-7.21-35.51-7.21-34.4 0-70.37 17.53-105.98 35.05s-70.86 35.04-103.84 35.04c-0.55 0-1.09-0.01-1.63-0.02-77.89-1.36-114.77-91.55-154.56-157.27-24.78-40.94-82.52-69.65-141.47-69.65" fill="#317130"/><path id="path102" d="m3986.3 4463.8c-102.83 0-187.36 76.48-241.53 142-28.41 34.37-68.37 49.25-110.24 49.25-46.75 0-95.87-18.56-133.91-49.25-71.43-57.62-153.18-86.73-228.31-86.73-50.81 0-98.6 13.32-138.11 40.15-97.89 66.5-72.68 183.38-62.9 256.27 9.77 72.87-40.68 127.54-40.68 127.54l15.76 30.08c47.33-41.11 54.62-136.46 58.4-194.52 4.1-62.87 79.26-144.86 176.29-155.78 7.49-0.85 14.96-1.24 22.39-1.24 88.8 0 172.3 56.53 229.04 80.49 27.86 11.77 55.17 20.44 83.56 20.44 34.27 0 70.13-12.64 110.48-47.77 73.8-64.22 165.36-136.65 278.78-138.02 0.59 0 1.18-0.01 1.77-0.01 112.06 0 150.31 128.56 226.43 146.23 10.76 2.5 20.68 3.56 29.97 3.56 26.59 0 48.01-8.72 69.05-17.44 21.05-8.71 41.72-17.43 66.84-17.43 3.39 0 6.86 0.15 10.42 0.49 65.59 6.22 71.07 95.05 154.43 95.05 76.67 0 123.3-97.56 229.22-97.56 9.22 0 18.87 0.74 29.05 2.34 127.07 20.06 103.85 153.97 150.31 175.84 5.29 2.49 11.15 4.76 17.47 6.87l20.78-39.2c-48.34-20.27-33.86-173.15-163.22-205.94-13.37-3.39-26.24-4.91-38.65-4.91-107.61 0-180.04 114.45-237.15 115.95-0.47 0.01-0.93 0.02-1.4 0.02-61.93 0-39.49-111.02-136.71-111.02-92.43 0-113.02 63.27-179.44 63.27-3.97 0-8.11-0.23-12.43-0.71-76.64-8.51-102.78-165.59-221.22-185.42-11.73-1.96-23.24-2.89-34.54-2.89" fill="#459e38"/><path id="path104" d="m4336.1 3355.2c-120.25 0-212.89 58.3-284.79 116.59-71.91 58.29-123.1 116.58-160.52 116.58-0.41 0-0.82-0.01-1.22-0.02-78.87-2.73-78.28-86.08-216.3-98.38-8.21-0.73-16.2-1.08-23.98-1.08-122.89 0-192.2 86.21-239.75 92.63-3.49 0.47-6.89 0.7-10.22 0.7-45 0-78.66-41.93-171.53-100.45-45.72-28.81-102.88-42.98-162.22-42.98-70.14 0-143.29 19.82-204 58.68-112.06 71.71-102.49 237.1-119.32 256.23-4.4 5.01-10.67 6.74-18.47 6.74-8.77 0-19.46-2.19-31.57-4.38-12.11-2.18-25.64-4.37-40.1-4.37-7.4 0-15.04 0.57-22.86 2.01-51.92 9.56-71.05 64.23-71.05 64.23l16.64 28.85c9.62-20.34 24.69-38.2 50.32-47.06 15.73-5.44 28.74-7.4 39.91-7.4 14.43 0 25.81 3.26 36.11 6.52 10.3 3.27 19.52 6.53 29.61 6.53 8.68 0 18-2.41 29.21-9.31 47.36-29.14 47.35-197.68 184.93-241.4 0 0 59.12-21.87 139.55-21.87 40.22 0 85.76 5.47 131.93 21.87 111.64 39.66 138.01 80.51 186.06 80.51 11.55 0 24.33-2.35 39.86-7.65 76.15-25.95 119.43-73.27 215.68-73.27 5.09 0 10.33 0.13 15.73 0.41 103.69 5.26 124.31 74.98 219.71 74.98 3.49 0 7.07-0.09 10.77-0.28 104.77-5.47 204.98-171.26 432.73-193.14 10.44-1 20.58-1.48 30.4-1.48 204.34 0 277.98 208.13 401.42 262.03 30.18 13.17 59.17 18.12 87.29 18.12 42.34 0 82.71-11.21 122.23-22.42 39.51-11.21 78.18-22.42 117.08-22.42 7.13 0 14.25 0.38 21.4 1.2 102.27 11.74 138.29 172.06 187.35 217.95l17.17-43.94-36-40c-36-39.98-40.06-186.2-148.48-204.21-9.57-1.59-18.61-2.3-27.28-2.3-39.96 0-71.79 15.22-107.58 30.43-35.79 15.22-75.56 30.44-131.4 30.44-13.63 0-28.22-0.91-43.94-2.94-158.51-20.5-179.01-269.2-448.21-299.11-14.47-1.61-28.56-2.37-42.3-2.37" fill="#317130"/><path id="path106" d="m4028.7 1730.2c-14.78 0-30.75 1.18-47.94 3.86 0 0 109.33 177.8 84.73 357.42s-217.28 212.42-217.28 212.42 88.57 82.1 150.32 82.1c1.38 0 2.74-0.04 4.09-0.12 61.86-3.82 66.96-84.72 173.54-132.55v-467.34s-45.52-55.79-147.46-55.79m-96.87 588.04c27.52 0 61.04-4.24 80.36-17.99 67.88-48.29 104.31-142.11 121.62-242.14 17.3-100.04-41-307.2-41-307.2 61.03 20.67 72.89 41.9 72.89 41.9v434.56c-76.53 24.59-118.43 118.42-163.99 130.27-4.26 1.11-8.74 1.61-13.34 1.61-40.65 0-91.55-39.23-100.18-46.13-0.64-0.34-1.07-0.69-1.27-1.03 0 0 0.44 0.36 1.27 1.03 4.95 2.63 22.53 5.12 43.64 5.12" fill="#7a172d"/><g fill="#dbf3f8"><path id="path108" d="m4545.1 6053.6c25.23 3.84-9.57 53.3 15.03 68.33 24.6 15.04 45.66-10.85 86.09-30.06 40.43-19.22 102.49-136.66 73.8-154.42-10.05-6.21-23.95-5.4-38.82-4.59-27.63 1.51-58.63 3.02-74.62-40.51-24.58-66.95 21.88-266.46-69.69-296.99-48.81-16.27-90.25 2.81-135.9 21.9-39.97 16.7-83.18 33.41-137.39 26.39-116.16-15.04-102.49-133.92-240.51-168.08s-169.45 58.76-250.07 91.56c-40.53 16.48-69.31 0.51-104.41-15.46-34.73-15.8-75.63-31.6-140.2-15.97-129.82 31.43-71.06 220-95.66 276.03-14.03 31.96-32.8 13.52-61.82-4.92-21.85-13.88-49.5-27.76-85.3-20.13-83.37 17.76-50.36 90.21-1.82 163.98 43.58 66.23 119.28 88.96 119.28 88.96s22.39-5.51 18.78-73.92c-3.59-68.38 50.39-8.39 62.39-3.6 12 4.8 69.24 60.66 93.4 15.94 24.18-44.72-32.21-199.5 43.37-229.5 40.2-15.95 65.12 33.57 93.71 83.08 25.19 43.61 53.22 87.23 97.05 86.11 93.59-2.41 85.19-127.19 106.78-188.37 21.6-61.19 71.99-80.38 119.98-45.6 48 34.81 83.98 163.18 190.77 136.78 106.77-26.39 137.96-49.19 161.97-14.39 24 34.79-27.18 177.96 49.19 233.95 34.85 25.55 49.4 20.88 67.53 16.2 9.96-2.57 21.01-5.14 37.09-2.7"/><path id="path110" d="m2999.6 5113.4s-13.3 1.13-19.13 38.27-45.09 35.53-81.99 0c-36.89-35.53-90.19-136.65-32.8-163.98 27.58-13.13 53.92-7.05 80.35-0.96 28.59 6.58 57.3 13.15 87.8-4.56 58.69-34.11 66.9-140.7 70.99-203.56 4.1-62.87 79.26-144.86 176.29-155.78 97.02-10.94 189.94 53.29 251.43 79.25s120.26 36.9 194.04-27.33c73.8-64.22 165.36-136.65 278.78-138.02 113.42-1.36 151.68 128.46 228.2 146.22 41.56 9.65 70.63-2.11 99.02-13.88 23.89-9.89 47.29-19.79 77.26-16.94 65.59 6.22 71.07 95.05 154.43 95.05 83.35 0 131.18-115.28 258.27-95.22 127.07 20.06 103.85 153.97 150.31 175.84 46.46 21.86 138.01 27.33 180.37 46.46 42.36 19.14 20.5 68.33 10.94 101.13-9.57 32.79 12.31 65.59-49.19 94.29-61.5 28.69-84.73 45.09-110.69 69.69s-47.84 58.76-94.29 47.83c-46.46-10.94-51.92-101.13-75.17-161.25-23.23-60.13-75.15-77.89-113.41-58.76-38.27 19.12-80.62 64.23-155.79 57.39-75.15-6.84-81.99-129.81-159.88-139.38-39.21-4.82-63.53 15.99-88.29 36.8-24.44 20.53-49.31 41.06-89.34 36.99-80.64-8.2-51.95-221.38-150.33-226.84-98.39-5.47-122.99 53.29-147.59 103.85-24.58 50.56-34.16 106.59-125.71 118.89-76.68 10.3-116.95-50.33-168.93-70.3-10.11-3.88-20.63-6.23-31.95-6.23 0 0-30.06 2.74-42.36 28.7s-30.06 39.63-56.03 34.17c-25.97-5.47-125.72-92.93-187.21-53.3s-41 117.52-30.07 151.68c10.94 34.17 27.34 120.35-39.62 149.69-35.95 15.75-78.19-10.04-123.99-35.83-39.52-22.25-81.68-44.5-124.72-40.07"/><path id="path112" d="m2678.9 4120.4s-2.41 1.03-6.46 2.15c-11.06 3.03-34.32 6.57-53.67-9.44-26.42-21.87-49.2-17.31-57.4 0-8.2 17.3 8.21 55.58-17.29 61.94-25.52 6.38-96.58-28.57-114.79-76.69-18.24-48.12-34.63-139.22 10.01-153.8 21.31-6.95 41.7-2.9 59.4 1.14 19.37 4.43 35.5 8.86 46.08-1.14 20.24-19.12 6.57-119.32 80.37-144.83 36.04-12.46 57.73-6.67 76.02-0.88 19.16 6.07 34.57 12.14 58.82-2.78 47.36-29.14 47.35-197.68 184.93-241.4 0 0 133-49.2 271.48 0 138.46 49.19 145.75 100.2 225.92 72.86 80.18-27.33 123.91-78.33 231.41-72.86 107.48 5.46 125.7 80.16 230.48 74.7 104.77-5.47 204.98-171.26 432.73-193.14 227.75-21.86 302.45 204.06 431.82 260.55 75.61 33.01 143.75 14.36 209.52-4.3 46.75-13.26 92.3-26.52 138.48-21.22 111.14 12.75 144.04 201 200.47 227.14 30.33 14.04 68.58 4.22 104.26-5.61 30.69-8.45 59.49-16.91 79.71-10.16 43.72 14.57 63.76 85.61 16.4 127.53-47.37 41.92-94.5 102.31-115.58 113.11-21.07 10.79-81.2 27.19-90.31-34.76-9.1-61.95-0.01-82-23.69-83.82-10.72-0.82-22.34 7.32-37.23 15.46-17.99 9.84-40.75 19.68-72.45 13.7-57.94-10.94-47.02-118.43-98.03-143.95-51-25.51-174.91 120.26-240.51 127.55-65.58 7.29-69.23-60.13-131.18-112.97-34.7-29.58-48.24-19.17-66.24-8.76-14.15 8.18-31.05 16.36-63.12 5.13-72.87-25.51-38.25-182.21-122.07-247.8-83.82-65.6-205.89 12.75-273.31 111.13-67.42 98.4-92.92 145.77-169.45 131.2-76.52-14.58-85.62-116.62-136.65-112.97-51.02 3.65-40.09 72.9-80.16 74.71-18.82 0.85-45.27-25.99-75.19-52.83-33.83-30.34-72.11-60.69-108.84-51.03-69.24 18.21-54.66 149.41-173.1 154.86-118.42 5.47-91.09-94.55-147.58-102.85-25.42-3.73-40.14 4.92-52.79 13.57-15.46 10.58-27.84 21.15-52.88 9.12-45.55-21.86-80.16-105.67-169.46-80.17-89.27 25.51-105.67 173.11-116.59 218.65-10.94 45.55-20.05 76.51-71.06 67.41-51.02-9.11-112.98-78.33-133.02-47.37-20.03 30.97 22.57 125.2-18.21 133.92"/><path id="path114" d="m5818.3 2975.3s52.83 39.17 127.54 12.77c36.07-12.77 72.89 67.4 0 134.82-72.88 67.42-138.48 105.68-162.16 142.12s-125.71 129.37-171.27 111.14c-45.54-18.21-10.93-116.61-20.05-187.66-9.1-71.06-51-69.24-89.26-65.6-38.28 3.65-81.99 9.12-87.45-85.62-5.47-94.76 27.32-213.19-38.28-215-29.09-0.82-59.62 16.65-93.96 34.12-43.08 21.92-92.18 43.83-152 29.65-107.51-25.51-138.5-87.48-134.85-158.53 3.66-71.05 0.01-100.21-12.74-100.21-12.76 0-40.08 23.7-60.13 0-20.05-23.69 3.66-145.76-103.85-123.9-107.51 21.87-136.66 143.94-193.13 191.31-56.49 47.38-103.86 58.31-129.37 0-25.51-58.29-9.12-103.85-41.91-103.85-32.8 0-96.58 56.48-138.48 76.52-41.9 20.05-65.59-3.63-74.7-56.47-9.1-52.85-28.79-140.3-82.72-122.08-53.92 18.22-88.55 143.94-157.79 149.4-69.23 5.47-120.26-38.25-174-122.07s-157.6-137.56-232.31-124.81c-74.71 12.76-67.4 208.62-138.46 243.24-41.8 20.36-57.12 2.9-72.29-14.56-10.62-12.23-21.17-24.45-40.68-23.7-47.37 1.81-65.6 136.66-71.06 176.74-5.47 40.07-51.01 102.01-158.53 51-107.49-51-147.56-103.84-178.53-87.44-30.98 16.4 0 154.87-60.13 191.31-60.12 36.44-83.83-29.15-134.84-43.73s-52.83 43.72-114.79 49.19c-61.94 5.46-114.79-18.72-163.97-74.95-49.2-56.24-131.2-114.53-176.75-85.38-45.55 29.14-52.83 191.32-51.02 220.47 1.84 29.14-20.03 94.73-60.12 94.73-40.08 0-40.08-41.89-54.66-36.43-14.58 5.47 3.35 60.51-10.94 71.05-14.26 10.55-65.58 16.39-94.73-29.15-29.16-45.55-80.17-111.14-54.67-138.47 11.26-12.07 31.05-12.06 50.42-12.05 24.51 0.01 48.35 0.02 53.44-24.4 9.11-43.73-87.45-238.68 80.17-322.49 95.97-47.98 225.99-8.77 339.44 30.44 84.7 29.28 160.16 58.55 205.33 51.54 105.68-16.39 41.92-125.71 120.26-158.51 37.86-15.85 88.48-1.06 139.53 13.73 54.59 15.81 109.68 31.62 150.17 9.96 78.35-41.91 12.76-307.91 296.99-377.16 284.24-69.23 434.76 200.43 575.4 236.86 140.66 36.45 91.47-145.78 326.5-153.05 119.74-3.71 156.26 30.88 181.09 65.47 23.92 33.3 37.01 66.61 103.14 65.72 134.84-1.82 224.12-118.45 384.46-76.52 160.33 41.9 184.03 260.54 313.39 307.91 63.51 23.27 116.05 10.51 169.46-2.26 55.38-13.23 111.7-26.46 182.19 0.44 138.46 52.84 76.52 291.54 187.66 364.4"/></g><g fill="#dc2125"><path id="path236" d="m3907 7308s-65.59-189.94-183.1-247.33c0 0 81.98 0 116.14 21.86 0 0-1.24-64.22-15.64-113.42 0 0 154.92 163.98 201.44 314.29 46.51 150.32-69.64 69.85-69.64 69.85l-49.2-45.25"/><path id="path238" d="m4143.1 7302.3s65.58-189.95 183.11-247.34c0 0-81.99 0-116.15 21.86 0 0 1.23-64.22 15.64-113.42 0 0-154.92 163.98-201.45 314.3-46.5 150.31 69.65 69.84 69.65 69.84l49.2-45.24"/><path id="path240" d="m3960.7 7487.5s-52.85 118.43-171.27 148.49c-118.43 30.06-101.12-51.63-111.13-125.58-10.03-73.93-30.07-118.57-37.37-145.89-7.28-27.34 28.24-119.34 150.32-107.52 122.08 11.85 154.88 48.29 154.88 48.29s23.68 111.15 22.78 117.52c-0.92 6.37-8.21 64.69-8.21 64.69"/></g><path id="path242" d="m3937.9 7325.4s-56.45 56.49-133.44 51.02c-77-5.47-124.37-58.31-94.31-92.01 30.06-33.71 205.89 2.73 227.75 25.52 21.87 22.76 0 15.47 0 15.47" fill="#901d1e"/><path id="path244" d="m4095.7 7484.8s52.84 118.43 171.27 148.49c118.42 30.07 101.13-51.63 111.14-125.57 10.02-73.94 30.06-118.58 37.35-145.9 7.29-27.33-28.24-119.34-150.32-107.5-122.06 11.84-154.86 48.28-154.86 48.28s-23.7 111.14-22.78 117.52c0.91 6.37 8.2 64.68 8.2 64.68" fill="#dc2125"/><path id="path246" d="m4118.5 7322.6s56.43 56.48 133.43 51.01c77.01-5.46 124.39-58.3 94.31-92.01-30.05-33.7-205.89 2.74-227.74 25.51-21.87 22.78 0 15.49 0 15.49" fill="#901d1e"/><path id="path248" d="m4110.6 7489.8s-86.09 46.46-161.25 0c0 0-41.75-112.42-10.93-188.58 0 0 73.79-45.09 172.18-6.82 0 0 31.43 94.28 0 195.4" fill="#dc2125"/><g fill="#a8e2ef"><path id="path472" d="m3958.2 5481c-57.09 0-96.24 27.95-135.94 76.08-20.71 25.11-42.52 35.18-66.94 35.18-28.37 0-60.25-13.6-97.95-32.98-24.57-12.63-50.19-18.47-74.75-18.47-45.59 0-87.5 20.15-112 54.53-18.2 25.52-22.02 67.13-22.02 107.66 0 29.37 2.01 58.17 2 79.88 0 10.43-0.47 19.22-1.84 25.65-5 23.27-9.65 35.42-23.55 35.42-8.94 0-21.72-5.04-40.87-15.38-29.01-15.67-63.1-30.05-90.8-30.05-19.02 0-35.03 6.78-44.3 24.59-3.04 5.85-4.36 12.56-4.36 19.8 0.01 46.89 55.37 115.93 55.37 115.93-8.48-17.36-12.12-34.73-12.12-50.51-0.01-19.81 5.73-37.12 14.86-48.79 2.19-2.8 6.39-3.98 12.11-3.98 14.63 0 39.21 7.68 65.52 15.36s54.37 15.36 75.98 15.36c11.45 0 21.08-2.15 27.69-7.6 36.42-30.06 16.39-145.77 32.79-182.21 11.4-25.31 48.73-43.6 92.32-43.59 19.14 0 39.5 3.52 59.38 11.53 31.36 12.64 52.25 18.85 71.08 18.85 20.3 0 38.19-7.23 64.19-21.41 50.11-27.32 92.92-72.88 161.25-81.99 7.22-0.96 13.79-1.45 19.88-1.45 51.52 0.01 67.72 34.81 138.29 108.94 37.24 39.12 78.35 51.47 118.33 51.47 44.74 0 88.05-15.47 122.9-26.17 21.14-6.5 43.1-10.11 63.72-10.11 43.73 0 81.44 16.26 92.59 55.88 2.72 9.68 3.71 22.02 3.71 35.96-0.01 37.65-7.28 86.97-7.27 127.1 0 34.54 5.39 62.27 25.42 69.91 23.38 8.91 47.69 9.85 68.43 9.85 2.75 0 5.44-0.02 8.06-0.04 2.63-0.01 5.18-0.03 7.65-0.03 17.68 0 31.02 0.86 36.12 8.69 2.79 4.3 3.86 9.93 3.86 16.02 0 19.66-11.16 44.11-11.16 44.11 28.91-31.53 57.55-101.17 57.58-118.28 0-0.77-0.06-1.43-0.18-1.98-1.03-4.84-9.41-6.14-21.29-6.14-6.89 0-14.97 0.44-23.47 0.88-8.51 0.44-17.45 0.87-26.07 0.87-7.11 0-14-0.29-20.26-1.13-28.67-3.82-33.56-25.04-33.57-60.66 0-7.39 0.21-15.4 0.46-24.01 0.11-3.62 0.16-7.68 0.17-12.12 0.01-56.95-8.74-175.78-29.12-213.81-10.27-19.16-28.62-26.18-50.28-26.18-24.69 0-53.68 9.13-79.89 19.8-49.19 20.04-102.95 35.53-157.6 35.53-54.66 0-97.5-34.62-130.6-87.46-33.11-52.82-90.78-84.72-160.7-92.91-7.93-0.93-15.51-1.39-22.81-1.39"/><path id="path474" d="m4007.8 4559.3c-51.66 0-125.32 25.91-174.64 64.95-65.6 51.93-83.37 91.55-169.83 124.21-19.22 7.26-37.02 10.28-53.7 10.28-58.39 0-102.92-37.09-145.43-59.67-43.81-23.25-103.4-52.89-163.74-52.89-14.95 0-29.96 1.82-44.77 6.01-74.59 21.1-103.06 55.42-122.19 129.22-19.14 73.78-25.97 155.78-54.66 200.87-14.92 23.44-38.32 30.26-64.46 30.26-24.15 0-50.64-5.83-74.92-9.76-15.93-2.59-28.61-4.22-38.89-4.22-22.33 0-33.31 7.72-41.74 30.18-1.22 3.26-1.77 6.92-1.76 10.85 0.07 35.53 45.49 93.69 45.49 93.69-3.55-5.05-11.05-31.66-11.07-53.23-0.02-14.4 3.3-26.55 13.36-28.54 1.29-0.25 2.75-0.37 4.37-0.37 13.12 0 36.54 7.92 64.47 15.83 27.93 7.92 60.36 15.83 91.49 15.83 11.29 0 22.42-1.04 33.09-3.5 73.19-16.86 88.98-125.27 93.05-180.5 4.07-55.22 15.97-156.12 94.32-176.16 5.93-1.52 12-2.22 18.24-2.22 76.1 0 175.38 104.8 314.71 111.54 3.81 0.18 7.56 0.27 11.27 0.27 143.12 0 212.71-134.46 259.71-180.04 22.23-21.56 57.09-33.44 93.22-33.44 42.22 0 86.16 16.23 113.65 52.18 46.52 60.88 88.5 115.84 146.27 115.84 5.58 0 11.31-0.51 17.2-1.58 46.17-8.39 83.51-36.71 118.29-36.71 15.62 0 30.73 5.72 45.88 21.53 45.42 47.39 102.63 96.35 158.31 96.35 4.26 0 8.51-0.29 12.75-0.89 59.59-8.39 93.45-75.41 168.24-80.28 2.22-0.14 4.34-0.21 6.38-0.21 66.75 0 41.15 75.89 108.62 127.39 31.66 24.17 53.31 30.43 74.04 30.43 11.16 0 22.06-1.81 34.1-3.63 12.05-1.82 25.24-3.64 41.01-3.64 3.48 0 7.1 0.09 10.86 0.29 49.06 2.58 60.63 30.81 60.61 57.4-0.01 10.92-1.97 21.57-4.09 30.05-7.3 29.16-72.89 84.93-72.89 84.93s65.59-45.29 82.99-57.59c16.99-12.02 27.22-52.7 27.2-76.23 0-0.56-0.01-1.12-0.02-1.66-0.01-0.28-0.01-0.55-0.01-0.83 0.01-13.09 6.93-31.08 6.94-46.49 0-12.04-4.23-22.51-19.29-27.84-34.73-12.3-145.64-35.54-186.3-58.77-40.66-23.22-34.5-116.15-105.55-154.41-16.62-8.95-31.43-12.74-45.18-12.74-45.06 0-78.63 40.73-126.13 74.24-34.88 24.6-65.82 36.66-93.52 36.66-21.53 0-41.1-7.29-59.03-21.64-38.78-31.02-51.41-83.89-100.9-83.89-2.84 0-5.8 0.17-8.89 0.54-49.4 5.78-61.07 39.51-120.91 39.51-9.2 0-19.54-0.79-31.34-2.61-88.48-13.67-149.29-121.63-191.98-146.23-10.6-6.1-25.25-8.92-42.3-8.92"/><path id="path476" d="m4389.6 3461.8c-47 0-97.82 12.44-153.97 29.05-123.2 36.43-236.43 171-350.94 171.28h-0.52c-52.99 0-102.89-19.97-148.6-39.94-45.72-19.98-87.25-39.95-123.51-39.95-5.69 0-11.24 0.49-16.66 1.55-74.71 14.58-123.91 78.34-185.84 83.8-3.42 0.3-6.8 0.45-10.15 0.45-57.48 0-106.87-43-176.26-85.35-35.26-21.51-84.08-33.03-136.56-33.03-56.84 0-117.97 13.52-170.79 42.51-84.08 46.14-97.49 191.12-118.1 221.68-10.88 16.12-25.59 22.19-42.21 22.19-14.89 0-31.3-4.87-47.87-11.75-14.81-6.15-34.15-10.44-53.24-10.44-26.15 0-51.84 8.06-64.73 30.48-22.31 38.77-12.75 100.21-41.9 123.9-5.82 4.73-12.43 6.48-19.56 6.48-10.33 0-21.75-3.68-33.44-7.37-11.69-3.68-23.64-7.37-35.03-7.37-8.77 0-17.21 2.19-24.94 8.26-8.13 6.39-11.25 17.14-11.26 29.87-0.03 41.57 33.13 104.17 33.13 104.17-12.79-40.4-17.35-67.08-17.36-84.59-0.01-27.09 10.89-32.23 19.16-32.23 5.06 0 9.13 1.92 9.13 1.92 23.77 11.53 44.89 15.01 61.74 15.01 25.8 0 41.61-8.16 41.61-8.16 41.41-25.95 33.3-117.08 52.44-138.04 8.33-9.13 16.15-13.24 26.24-13.24 13.06 0 29.93 6.89 56.64 18.71 13.13 5.81 26.1 7.9 38.01 7.9 31.06 0 54.81-14.29 54.81-14.29 109.66-52.1 71.82-226.48 218.31-249.62 10.49-1.65 21.16-2.42 31.97-2.42 66.61 0 138.31 29.1 201.76 58.2 63.44 29.09 118.64 58.19 152.25 58.19 3.52 0 6.81-0.32 9.85-1 65.59-14.57 84.88-89.75 187.65-91.11 0.89-0.01 1.77-0.02 2.65-0.02 100.83 0.01 140.59 76.61 268.84 83.84 2.18 0.12 4.4 0.18 6.65 0.18 63.57 0 156.58-48.05 250.74-96.1s189.48-96.11 257.68-96.11c4.75 0 9.37 0.24 13.84 0.72 135.34 14.58 247.28 244.14 383.89 285.24 18.52 5.57 36.13 7.94 52.99 7.94 47.88 0 89.67-19.11 128.66-38.22 39-19.11 75.21-38.22 111.96-38.22 9.02 0 18.06 1.15 27.19 3.73 96.64 27.32 116.52 187.65 209.95 222.97 24.05 9.09 45.23 12.36 63.84 12.36 24.03 0 43.79-5.46 59.93-10.92 16.15-5.47 28.7-10.93 38.31-10.93 2.24 0 4.32 0.3 6.25 0.96 8.32 2.86 11.08 8.95 11.07 15.8-0.02 13.65-11.07 30.3-11.07 30.3 25.17-19.99 40.05-45.33 40.08-65.82 0.02-13.14-6.06-24.29-19.44-30.75-4.26-2.05-8.41-2.92-12.64-2.92-11.48 0-23.48 6.4-39.42 12.8-15.94 6.39-35.82 12.79-63.07 12.79-16.17 0-34.93-2.25-57-8.09-110.18-29.16-81.13-196.77-208.66-222.28-15.29-3.06-29.9-4.39-43.95-4.39-46.87 0-87.56 14.79-126.74 29.57-39.18 14.79-76.83 29.57-117.62 29.57-8.22 0-16.57-0.6-25.08-1.92-105.67-16.4-178.56-129.36-266.45-220.46-47.84-49.58-98.52-67.32-154.64-67.32"/><path id="path478" d="m772.97 639.29s5.11 8.32 9.6 11.72c1.34 1.02 1.99 1.93 1.99 2.71 0.01 1.85-3.53 3.03-10.01 3.37-9.23 0.48-11.05-0.25-17.73 7.41-6.68 7.65-3.65 14.82-9.23 25.02-5.22 9.52-5.99 13.54-14.86 13.54-0.63 0-1.31-0.02-2.03-0.06-7.33-0.41-12.26-1.77-17.59-1.77-2.53 0-5.15 0.3-8.16 1.16-9.35 2.68-21.98 10.57-31.58 22.6-9.6 12.02-9.59 19.55-21.86 20.16-0.25 0.01-0.5 0.02-0.75 0.02-5.61 0-12.13-2.99-19.1-5.99-6.97-2.99-14.39-5.98-21.79-5.98-1.31 0-2.61 0.09-3.91 0.29-16.4 2.55-16.65 13.24-23.81 18.59-0.79 0.58-1.69 0.85-2.68 0.85-8.07 0-22.89-17.2-43-18.71-0.91-0.07-1.81-0.1-2.69-0.1-21.13 0-35.76 18.78-51.97 26.94-4.68 2.36-9.68 3.34-14.57 3.34-12.75 0-24.69-6.63-27.94-12.69-4.49-8.38-2.79-21.74-16.28-31.34-6.65-4.73-13.25-6.45-19.27-6.45-6.18 0-11.76 1.81-16.19 4.02-1.91 0.96-3.52 1.35-4.88 1.35-4.86 0.01-6.42-5.14-6.42-8.27 0-4.01-0.23-12.79-11.65-14.29-1.06-0.14-2.17-0.21-3.33-0.21-5.61 0-12.29 1.55-18.94 3.83-6.81 2.32-13.58 5.4-19.16 8.36-5.75 3.05-13.04 4.6-19.66 4.6-7.36 0-13.91-1.91-16.66-5.81-3.58-5.08-4.71-11.68-4.71-17.12 0-2.49 0.23-4.74 0.58-6.48 0.33-1.71 0.59-3.69 0.59-5.68 0-4.51-1.31-9.08-5.94-10.69-0.85-0.29-1.74-0.4-2.61-0.4-1.2 0-2.4 0.2-3.49 0.4s-2.09 0.41-2.9 0.41c-1.3 0-2.13-0.52-2.13-2.37 0-1.61 0.63-4.25 2.15-8.47 0 0-6.37 8.08-6.38 12.63 0 0.44 0.05 0.84 0.18 1.21 0.44 1.24 1.44 1.6 2.72 1.6 0.88 0 1.9-0.17 2.97-0.34s2.19-0.34 3.28-0.34c1.48 0 2.89 0.32 4.03 1.38 1.67 1.58 2.22 3.46 2.23 5.9 0 3.39-1.06 7.86-1.62 14.06-0.17 1.81-0.27 3.58-0.27 5.29 0.01 8.36 2.38 15.36 10.95 19.09 5.33 2.32 9.62 3.6 14.48 3.6 4.56 0 9.62-1.13 16.5-3.6 11.53-4.14 28.51-12.13 39.63-12.13 2.58 0 4.84 0.43 6.65 1.44 9.59 5.34 7.04 6.68 7.89 11.9 0.76 4.68 0.84 9.06 5.55 9.06 0.55 0 1.17-0.06 1.86-0.19 5.31-0.98 16.84-5.31 26.77-5.31 2.33 0 4.58 0.24 6.64 0.82 10.81 3.03 10.56 11.17 13.48 19.67 2.92 8.51 4.98 21.26 22.84 27.46 6.76 2.34 13.06 3.37 18.83 3.37 9.46 0 17.51-2.75 23.92-6.9 9.98-6.45 27.89-24.36 42.29-24.36 0.51 0 1.01 0.02 1.5 0.07 14.64 1.33 11.72 10.32 24.96 16.52 6.35 2.97 11.5 4.01 15.76 4.01 4.62 0 8.18-1.22 11.09-2.55 5.59-2.55 9.11-13.12 15.67-15.43 2.15-0.76 4.76-1.15 7.71-1.15 6.04 0 13.48 1.65 21.22 5.16 8.24 3.74 15.49 7.47 22.83 7.47 2.91 0 5.84-0.59 8.85-2.01 10.57-4.98 17.13-19.07 24.41-27.81 7.05-8.46 17.39-15.21 24.77-15.21 0.25 0 0.5 0.01 0.74 0.03 6.67 0.43 13.43 2.63 21.7 2.63 0.93 0 1.87-0.02 2.84-0.08 9.59-0.61 17.13-3.91 20.41-16.29s3.52-27.32 11.53-31.21c8.02-3.89 16.77-2.91 20.53-3.64 1.36-0.26 1.96-1.61 1.96-3.38 0-3.13-1.88-7.61-4.75-9.86-4.5-3.53-11.42-5.83-14.58-10.39z" transform="matrix(7.5 0 0 -7.5 0 8e3)"/></g><path id="path482" d="m4027.2 7413.2c-52.27 0-82.46 20.12-82.46 20.12 2.27 26.88 11.84 49.2 11.84 49.2 23.12 10.82 46.83 14.44 68.23 14.44 43.55 0 77.53-15.01 77.53-15.01 4.09-10.11 13.22-50.9 13.22-50.9-33.84-13.33-63.58-17.85-88.36-17.85m77.53 36.01-7.18 28.99s-31.81 11.08-72.01 11.08c-20.11 0-42.31-2.77-63.69-11.08 0 0-5.39-11.39-8.13-23.12 0 0 25.77 15.83 66.88 15.83 23.63 0 52.33-5.23 84.13-21.7" fill="#ec451e"/><g fill="#c41e25"><path id="path484" d="m4036.2 7288c-50.68 0-88.59 19.1-88.59 19.1-15.8 45.1-2.89 92.93-2.89 92.93 9.27-40.31 33.24-67.87 81.02-71.06 1.32-0.09 2.64-0.14 3.95-0.14 46.11 0 85.85 52.98 85.85 52.98-1.37-35.53-10.02-80.63-10.02-80.63-24.12-9.76-47.87-13.18-69.32-13.18m-88.59 61.47s-0.85-25.97 6.09-38.27c0 0 32.7-15.24 82.66-15.24 19.14 0 40.8 2.24 64.14 8.42 0 0 4.32 27.34 4.21 39.63 0 0-29.3-32.66-74.04-32.66-23.96 0-52.35 9.36-83.06 38.12"/><path id="path486" d="m3921.3 7431c-15.04 7.51-53.3 12.99-85.41 27.33-32.12 14.35-41 40.31-14.34 47.14 4.76 1.22 8.79 1.72 12.22 1.72 15.75 0 18.52-10.59 18.52-10.59-3.46 1-6.5 1.44-9.12 1.44-20.67 0-15.66-27.96 9.12-34.93 49.64-13.95 69.01-32.11 69.01-32.11"/><path id="path488" d="m3701 7279c-51.05 28.33-55.54 81.91-55.54 81.91 24.6 43.73 42.82 155.78 42.82 155.78-13.67-143.95 35.53-147.64 35.53-147.64-53.75-33.77-22.81-90.05-22.81-90.05"/></g><g fill="#ec451e"><path id="path490" d="m3927.2 7360c-0.92 0.55-59.97 35.66-128 35.66-2.69 0-5.41-0.06-8.13-0.17 21.98 2.49 52 5.37 73.48 5.37 6.07 0 11.46-0.23 15.79-0.77 6.87-0.84 13.22-1.25 18.97-1.25 13.85 0 24.25 2.37 30.23 6.71-1.82-14.61-2.83-30.09-2.34-45.55"/><path id="path492" d="m3927.2 7360l-0.01 0.01c-0.49 15.46 0.52 30.94 2.34 45.55 2.9 2.1 4.76 4.67 5.46 7.66l-7.79-53.22"/><path id="path494" d="m3762.1 7391.9c9.7 2.06 19.38 3.19 28.94 3.6-16.81-1.91-28.94-3.6-28.94-3.6"/><path id="path496" d="m3939.8 7469.1h-4.82c-76.08 104.76-151.82 126.14-192.65 126.14-16.97 0-27.92-3.7-30.33-6.64-8.19-10.03-20.03-60.13-20.03-60.13s3.63 30.97 9.08 66.49c3.42 22.32 14.95 33.17 38.51 33.17 13.96 0 32.14-3.81 55.35-11.29 103.86-33.49 154.42-127.09 154.42-127.09l-9.53-20.65m-76.23 102.64c36.8-25.96 71.41-92.01 71.41-92.01l7.07 9.49c-35.99 58.69-78.48 82.52-78.48 82.52"/></g><path id="path498" d="m3756.9 7278.2c-27.82 0-49.63 13.45-46.69 34.44 3.35 23.94 52.68 55.55 104.77 56.42 0.56 0 1.11 0.01 1.67 0.01 51.62 0 107.19-39.58 107.19-39.58l3.24-16.85v-2.28c-15.96 13.61-59.95 26.2-96.75 26.2-12.47 0-24.12-1.45-33.57-4.79-37.35-13.21-27.79-52.76-27.79-52.76-4.11-0.55-8.15-0.81-12.07-0.81" fill="#5e1515"/><path id="path500" d="m4135.3 7434.3s19.37 18.16 69.01 32.12c24.79 6.96 29.8 34.92 9.13 34.92-2.63 0-5.66-0.44-9.13-1.44 0 0 2.77 10.6 18.53 10.6 3.43 0 7.47-0.5 12.23-1.72 26.64-6.83 17.75-32.8-14.36-47.14-32.12-14.35-70.37-19.81-85.41-27.34" fill="#c41e25"/><path id="path502" d="m4355.6 7282.2s30.93 56.27-22.82 90.05c0 0 49.2 3.7 35.53 147.63 0 0 18.22-112.05 42.82-155.78 0 0-4.49-53.57-55.53-81.9" fill="#c41e25"/><g fill="#ec451e"><path id="path504" d="m4129.5 7363.2-4.93 33.71c-0.04 4.78-0.17 9.66-0.42 14.64 5.02-6.12 16.68-9.51 33.27-9.51 5.75 0 12.09 0.4 18.95 1.25 4.34 0.53 9.74 0.76 15.82 0.76 21.49 0 51.5-2.88 73.47-5.37-2.73 0.11-5.45 0.17-8.16 0.17-68.56 0-128-35.65-128-35.65"/><path id="path506" d="m4124.5 7396.9-2.86 19.51c0.41-1.78 1.24-3.4 2.44-4.87 0.25-4.98 0.38-9.86 0.42-14.64"/><path id="path508" d="m4294.5 7395.1s-12.11 1.69-28.92 3.6c9.55-0.41 19.23-1.54 28.92-3.6"/><path id="path510" d="m4118.8 7469.9-1.94 2.44-3.29 7.12c-0.92 3.43-1.92 6.87-2.99 10.31 0 0-0.79 0.42-2.29 1.16l-0.96 2.07s50.56 93.62 154.42 127.09c23.22 7.49 41.4 11.3 55.36 11.3 23.56 0 35.08-10.85 38.51-33.16 5.44-35.53 9.06-66.51 9.06-66.51s-11.83 50.11-20.02 60.12c-2.41 2.95-13.36 6.66-30.33 6.66-40.82 0-116.56-21.4-192.65-126.16l-2.88-2.44m71.36 106.42s-42.47-23.84-78.46-82.52l7.06-9.48s34.62 66.04 71.4 92"/><path id="path512" d="m4113.6 7479.5-5.28 11.47c1.5-0.74 2.29-1.16 2.29-1.16 1.07-3.44 2.07-6.88 2.99-10.31"/></g><path id="path514" d="m4299.8 7281.4c-3.93 0-7.98 0.27-12.09 0.82 0 0 9.55 39.54-27.8 52.75-9.46 3.34-21.11 4.79-33.59 4.79-36.8 0-80.76-12.59-96.72-26.2v2.28l3.23 16.85s55.58 39.59 107.21 39.59c0.55 0 1.1 0 1.65-0.01 52.09-0.87 101.42-32.47 104.78-56.43 2.93-20.99-18.86-34.44-46.67-34.44" fill="#5e1515"/><path id="path516" d="m3953.4 7157c-11.13 43.98-59.9 48.05-77.6 48.05-4.02 0-6.44-0.21-6.44-0.21 15.71 26.64 34.08 65.81 34.08 65.81 12.02 1.07 41.31 17.33 41.31 17.33 37.8-20.01 68.48-20.06 68.48-20.06-13.29-51.72-59.83-110.92-59.83-110.92m-13.56 95.42c29.75 0 53.88-12.05 53.88-12.05l10.58 20.14c-35.87 4.09-60.47 18.42-60.47 18.42l-37.24-13.97-10.24-22.89c14.47 7.72 29.59 10.35 43.49 10.35" fill="#c41e25"/><path id="path518" d="m3840.5 7004.2c11.84 37.35 6.54 88.83 6.54 88.83-27.99-20.52-72.2-22.42-87.59-22.42-3.49 0-5.5 0.1-5.5 0.1 44.64 21.86 92.92 92 92.92 92 8.01 2.89 15.27 4.15 21.84 4.15 44.28 0 57.38-56.97 57.38-56.97-24.56-37.36-85.59-105.69-85.59-105.69m16.97 103.63s2.04-43.73-3.43-75.16c0 0 34.51 34.85 52.61 65.25 0 0-11.75 40.01-50.66 40.01-6.58 0-13.91-1.13-22.11-3.8 0 0-22.2-35.87-55.68-56.02 0 0 50.9 7.42 79.27 29.72" fill="#ec451e"/><g fill="#f48912"><path id="path520" d="m3854 7032.7c5.47 31.43 3.43 75.16 3.43 75.16-28.37-22.3-79.27-29.72-79.27-29.72 33.48 20.15 55.68 56.02 55.68 56.02 8.2 2.67 15.53 3.8 22.11 3.8 38.91 0 50.66-40.01 50.66-40.01-18.1-30.4-52.61-65.25-52.61-65.25"/><path id="path522" d="m4104.8 7449.2c-31.8 16.47-60.5 21.7-84.13 21.7-41.11 0-66.88-15.83-66.88-15.83 2.74 11.73 8.13 23.12 8.13 23.12 21.38 8.31 43.58 11.08 63.69 11.08 40.2 0 72.01-11.08 72.01-11.08l7.18-28.99"/><path id="path524" d="m3935 7479.8s-34.61 66.05-71.41 92.01c0 0 42.49-23.83 78.48-82.52l-7.07-9.49"/><path id="path526" d="m4118.8 7484.3-7.06 9.48c35.99 58.68 78.46 82.52 78.46 82.52-36.78-25.96-71.4-92-71.4-92"/></g><path id="path528" d="m3993.7 7240.4s-24.13 12.05-53.88 12.05c-13.9 0-29.02-2.63-43.49-10.35l10.24 22.89 37.24 13.97s24.6-14.33 60.47-18.42l-10.58-20.14" fill="#a01b21"/><path id="path530" d="m4099.9 7151.2s-46.53 59.21-59.82 110.91c0 0 30.66 0.06 68.48 20.08 0 0 29.29-16.26 41.3-17.33 0 0 18.37-39.18 34.09-65.83 0 0-2.43 0.21-6.47 0.21-17.7 0-66.44-4.08-77.58-48.04m9.57 121.95s-24.59-14.36-60.47-18.43l10.6-20.16s24.13 12.06 53.88 12.06c13.89 0 29.02-2.63 43.48-10.35l-10.24 22.89-37.25 13.99" fill="#c41e25"/><path id="path532" d="m4212.8 6998.4s-61.03 68.33-85.58 105.69c0 0 13.09 56.97 57.37 56.97 6.58 0 13.83-1.26 21.85-4.14 0 0 48.27-70.15 92.91-92.02 0 0-2.01-0.1-5.48-0.1-15.37 0-59.61 1.89-87.61 22.42 0 0-5.29-51.47 6.54-88.82m-13.54 28.46c-5.47 31.44-3.43 75.17-3.43 75.17 28.37-22.3 79.27-29.74 79.27-29.74-33.48 20.16-55.7 56.04-55.7 56.04-8.18 2.66-15.52 3.8-22.09 3.8-38.9 0-50.66-40.01-50.66-40.01 18.11-30.41 52.61-65.26 52.61-65.26" fill="#ec451e"/><path id="path534" d="m4199.3 7026.9s-34.5 34.85-52.61 65.26c0 0 11.76 40.01 50.66 40.01 6.57 0 13.91-1.14 22.09-3.8 0 0 22.22-35.88 55.7-56.04 0 0-50.9 7.44-79.27 29.74 0 0-2.04-43.73 3.43-75.17" fill="#f48912"/><path id="path536" d="m4059.6 7234.6-10.6 20.16c35.88 4.07 60.47 18.43 60.47 18.43l37.25-13.99 10.24-22.89c-14.46 7.72-29.59 10.35-43.48 10.35-29.75 0-53.88-12.06-53.88-12.06" fill="#a01b21"/><path id="path538" d="m4036.4 7296c-49.96 0-82.66 15.24-82.66 15.24-6.94 12.3-6.09 38.27-6.09 38.27 30.71-28.76 59.1-38.12 83.06-38.12 44.74 0 74.04 32.66 74.04 32.66 0.11-12.29-4.21-39.63-4.21-39.63-23.34-6.18-45-8.42-64.14-8.42" fill="#a01b21"/><path id="path540" d="m4092.8 1750.9s58.3 207.16 41 307.2c-17.31 100.03-53.74 193.85-121.62 242.14-19.32 13.75-52.84 17.99-80.36 17.99-21.11 0-38.69-2.49-43.64-5.12 8.63 6.9 59.53 46.13 100.18 46.13 4.6 0 9.08-0.5 13.34-1.61 45.56-11.85 87.46-105.68 163.99-130.27v-434.56s-11.86-21.23-72.89-41.9m-205.89 561.18c0.2 0.34 0.63 0.69 1.27 1.03-0.83-0.67-1.27-1.03-1.27-1.03" fill="#44141a"/></g></svg>
