<?xml version="1.0" encoding="UTF-8" standalone="no"?>
<svg id="svg4379" xmlns:rdf="http://www.w3.org/1999/02/22-rdf-syntax-ns#" xmlns="http://www.w3.org/2000/svg" height="100" viewBox="0 0 99.999997 99.999997" width="100" version="1.1" xmlns:cc="http://creativecommons.org/ns#" xmlns:dc="http://purl.org/dc/elements/1.1/">
 <metadata id="metadata20">
  <rdf:RDF>
   <cc:Work rdf:about="">
    <dc:format>image/svg+xml</dc:format>
    <dc:type rdf:resource="http://purl.org/dc/dcmitype/StillImage"/>
    <dc:title/>
   </cc:Work>
  </rdf:RDF>
 </metadata>
 <g id="layer1" transform="matrix(-1 0 0 1 100 -952.36)">
  <path id="path78" fill-opacity=".28627" d="m60.913 1052.4c-17.23-0.01-29.642-10.85-37.574-21.239 7.4434 6.3218 16.94 9.8014 26.69 9.8014 5.9349 0 11.965-1.2903 17.681-4.0156 10.266-4.8932 17.576-13.489 21.09-23.428 3.551 11.379 6.7972 33.945-21.168 38.345-2.319 0.3652-4.5538 0.536-6.7194 0.536"/>
  <g id="g5">
   <path id="path132" fill="#e9eae9" d="m38.492 963c1.2903 2.7059 0.1448 5.9457-2.5654 7.2424-2.7081 1.286-5.9522 0.13616-7.2424-2.5698l-3.594-7.54c-1.2903-2.7102-0.14049-5.95 2.5676-7.2403 2.7102-1.2903 5.95-0.14054 7.2381 2.5654l3.5964 7.5428"/>
   <path id="path134" fill="#fbd132" d="m87.147 982.06c9.7819 20.515 1.0763 45.073-19.436 54.853-20.519 9.7841-45.078 1.0763-54.86-19.439-9.7776-20.517-1.072-45.076 19.445-54.853 20.513-9.7819 45.073-1.0785 54.851 19.439"/>
   <path id="path264" fill="#f9af15" d="m49.728 1038c-1.1757 0-2.3882-0.047-3.631-0.1447-33.349-2.613-33.059-41.455-33.059-41.455 5.5761 4.7894 11.239 6.566 16.841 6.566 8.027 0 15.924-3.6504 23.24-7.2986 7.3181-3.6482 14.055-7.2965 19.767-7.2965 0.75212 0 1.487 0.0627 2.2023 0.19884 15.367 2.9004 13.043 18.269 13.043 18.269s-8.0594 31.161-38.404 31.161m-33.261-34.2s-0.268 30.303 29.819 32.337c1.1282 0.078 2.2261 0.1146 3.2916 0.1146 27.377 0 34.639-24.314 34.639-24.314s2.0921-11.989-11.764-14.247c-0.64622-0.10585-1.3119-0.15562-1.9927-0.15562-5.1525 0-11.232 2.8464-17.835 5.6928-6.6005 2.8443-13.726 5.6907-20.969 5.6907-5.0509 0-10.16-1.3832-15.189-5.1179"/>
   <path id="path266" fill="#f58113" d="m49.577 1036.3c-1.0655 0-2.1634-0.037-3.2916-0.1146-30.087-2.0337-29.819-32.337-29.819-32.337 5.0293 3.7347 10.139 5.1179 15.189 5.1179 7.2424 0 14.368-2.8464 20.969-5.6906 6.6027-2.8464 12.682-5.6928 17.835-5.6928 0.6808 0 1.3465 0.0498 1.9927 0.15561 13.856 2.2585 11.764 14.247 11.764 14.247s-7.2619 24.314-34.639 24.314m16.138-19.356c-6.8966 0-16.618 3.0063-20.472 7.6876-4.5322 5.5135-0.18154 9.7236 7.1063 9.7236 3.0841 0 6.6935-0.7521 10.378-2.4811 0.7089-0.3264 8.9347-2.5892 10.415-10.402 0.603-3.1555-2.7664-4.5279-7.4283-4.5279"/>
   <path id="path268" fill="#fbe971" d="m32.324 980.69c-4.6619 0-8.0335-1.3724-7.4326-4.5257 1.4805-7.8217 9.7128-10.085 10.424-10.413 3.685-1.7247 7.2943-2.4768 10.378-2.4768 7.2878 0 11.634 4.208 7.0998 9.7258-3.8536 4.6878-13.573 7.6898-20.469 7.6898m9.6674-14.991c-1.5734 0-3.4127 0.38472-5.2908 1.2622-0.37391 0.1794-4.5776 1.3313-5.3405 5.3319-0.3069 1.6102 1.4156 2.3082 3.7974 2.3082 3.5294 0.002 8.5046-1.5345 10.474-3.927 2.3147-2.8226 0.0843-4.9753-3.6396-4.9753"/>
   <path id="path270" fill="#fdf6af" d="m35.157 974.61c-2.3817 0-4.1043-0.69809-3.7974-2.3082 0.76293-4.0005 4.9666-5.1525 5.3405-5.3319 1.8781-0.87747 3.7174-1.2622 5.2908-1.2622 3.7239 0 5.9543 2.1526 3.6396 4.9753-1.9689 2.3925-6.9442 3.9292-10.474 3.927"/>
   <path id="path272" fill="#fbe971" d="m18.025 987.23c-1.353 0-2.4444-1.0958-2.4444-2.4487 0-1.3573 1.0914-2.4444 2.4444-2.4444s2.4466 1.0871 2.4466 2.4444c0 1.353-1.0936 2.4487-2.4466 2.4487"/>
   <path id="path274" fill="#fab819" d="m52.35 1034.3c-7.2878 0-11.638-4.2102-7.1063-9.7236 3.8536-4.6813 13.575-7.6877 20.472-7.6877 4.6619 0 8.0313 1.3724 7.4283 4.5279-1.4805 7.813-9.7063 10.076-10.415 10.402-3.685 1.7291-7.2943 2.4812-10.378 2.4812m10.521-11.327c-3.5272 0-8.4938 1.5324-10.458 3.9271-2.3234 2.8248-0.0929 4.9752 3.6353 4.9752 1.5756 0 3.417-0.3847 5.2973-1.2622 0.36958-0.175 4.5646-1.3399 5.3297-5.3318 0.30689-1.6059-1.42-2.3083-3.8039-2.3083"/>
   <path id="path276" fill="#fbdd49" d="m56.048 1031.9c-3.7282 0-5.9586-2.1504-3.6353-4.9752 1.9646-2.3947 6.9312-3.9271 10.458-3.9271 2.3839 0 4.1108 0.7024 3.8039 2.3083-0.7651 3.9919-4.9601 5.1568-5.3297 5.3318-1.8803 0.8775-3.7217 1.2622-5.2973 1.2622"/>
  </g>
 </g>
</svg>
