<?xml version="1.0" encoding="UTF-8" standalone="no"?>
<svg id="svg4379" xmlns:rdf="http://www.w3.org/1999/02/22-rdf-syntax-ns#" xmlns="http://www.w3.org/2000/svg" height="100" viewBox="0 0 99.999997 99.999997" width="100" version="1.1" xmlns:cc="http://creativecommons.org/ns#" xmlns:dc="http://purl.org/dc/elements/1.1/">
 <metadata id="metadata20">
  <rdf:RDF>
   <cc:Work rdf:about="">
    <dc:format>image/svg+xml</dc:format>
    <dc:type rdf:resource="http://purl.org/dc/dcmitype/StillImage"/>
    <dc:title/>
   </cc:Work>
  </rdf:RDF>
 </metadata>
 <path id="path94" d="m43.157 89.437c-12.546-2.555-30.645-11.915-37.56-18.996-8.0908-8.283-5.1624-13.834-4.7174-14.563 1.5587 7.176 8.6353 13.444 24.394 20.987 8.4599 4.046 14.985 6.4995 20.137 7.549 7.6153 1.5513 12.229 0.03888 15.673-3.9128 4.0363-4.6321 11.966-15.492 16.374-21.611 1.2915 0.55342 2.6511 0.9951 3.9737 1.2645 2.2439 0.4571 4.3842 0.42161 5.9192-0.39197 3.4644-1.8351 6.9029-5.615 10.715-11.977 0.59507-0.99064 1.0337-1.9308 1.3403-2.8196 1.3433 3.2304-0.59696 6.1749-1.5406 8.0684-1.2717 2.5535-5.3665 8.8477-11.337 10.541-3.1354 0.88701-5.4481 0.77826-6.9368 0.475-1.3483-0.27467-2.0218-0.70836-2.0218-0.70836l-1.2049 2.2357c-3.7019 5.285-14.13 22.404-24.931 24.332-2.2069 0.39255-5.0594 0.18414-8.278-0.47151" fill-opacity=".28627"/>
 <g>
  <path id="path160" d="m50.766 32.497s-2.2326 9.2411-9.0599 9.4213c-6.8162 0.17629-15.753-2.8406-20.78-5.3553-5.028-2.509-17.589 1.175-19.9 11.836-2.315 10.655 3.2882 18.435 24.248 28.466 20.964 10.029 30.036 10.261 35.811 3.636 5.774-6.625 19.517-26.004 19.517-26.004l-29.836-22" fill="#a62c59"/>
  <path id="path162" d="m68.211 12.265s26.528 20.851 28.781 22.873c2.2529 2.0197 4.8939 6.2886 1.0743 12.647-3.812 6.362-7.25 10.142-10.714 11.977-3.465 1.835-10.021-0.287-13.88-3.114-3.86-2.825-24.834-21.621-24.834-21.621s-6.1187-4.0261-2.5751-10.101 11.437-13.387 11.437-13.387 4.5224-4.148 10.711 0.7263" fill="#fefcd1"/>
  <path id="path442" d="m81.98 58.443c-1.71-0.348-3.631-1.164-5.949-2.501-4.909-2.828-27.145-22.129-28.329-23.919-1.1838-1.7895-1.9826-5.4691 0.21799-7.9734 2.199-2.5067 6.6797-7.9254 6.6797-7.9254s-2.586 4.3963-0.32701 7.8112c2.261 3.4153 24.267 18.309 28.151 20.648 0.78492 0.47286 1.7681 0.84198 2.8574 1.0639 4.3058 0.87716 10.262-0.54701 12.14-7.0129 0 0 1.4518 2.5462-0.18241 6.4343-1.6377 3.8853-6.9916 11.519-10.076 12.861-1.6304 0.70562-3.2723 0.90235-5.1821 0.51331m-30.408-37.035-2.726 3.602s-2.2771 2.5361-0.26589 6.2073c2.0092 3.6708 27.984 22.965 27.984 22.965s1.9457 1.1829 4.5612 1.7157c2.3131 0.4712 5.1474 0.43502 7.6277-1.3802 0 0 3.5304-4.7969 4.6173-7.1307 0 0-4.8753 4.455-8.9814 3.6185-0.17595-0.03585-0.34988-0.08164-0.52379-0.13763-4.202-1.368-30.884-21.82-31.684-23.41-0.798-1.594-1.73-4.032-0.609-6.05" fill="#fdf9ad"/>
  <path id="path444" d="m81.126 55.897c-2.6155-0.53282-4.5612-1.7157-4.5612-1.7157s-25.975-19.295-27.984-22.965c-2.0112-3.6712 0.26589-6.2073 0.26589-6.2073l2.7268-3.6017c-1.1214 2.0179-0.18921 4.4563 0.60834 6.0498 0.80034 1.5899 27.482 22.042 31.684 23.41 0.17391 0.05599 0.34783 0.10178 0.52379 0.13763 4.1062 0.83648 8.9814-3.6185 8.9814-3.6185-1.087 2.3338-4.6173 7.1307-4.6173 7.1307-2.4803 1.8152-5.3147 1.8514-7.6277 1.3802" fill="#fcf380"/>
  <path id="path446" d="m73.396 62.204s-2.8535-1.6993-3.7411-2.3558c-5.807-4.314-21.834-18.982-21.834-18.982l2.1222-3.0392s19.884 17.484 21.861 19.282c1.9827 1.7999 3.6541 2.3278 3.6541 2.3278l-2.0627 2.7672" fill="#7a172d"/>
  <path id="path448" d="m45.531 82.424c-7.883-1.606-33.064-12.171-39.437-20.425-6.53-8.456-2.3001-16.788-2.3001-16.788-1.5083 19.391 28.831 27.915 37.592 31.388 1.6247 0.64601 3.1252 1.0937 4.5189 1.3777 6.1207 1.2469 10.165-0.67596 13.546-3.0427 4.1559-2.9049 7.9772-7.8464 7.9772-7.8464s-1.1418 2.3906-4.553 8.1692c-3.4088 5.7771-9.6175 8.4491-16.788 7.2705-0.17519-0.02951-0.36184-0.06336-0.55756-0.10324" fill="#7a172d"/>
  <path id="path450" d="m42.072 62.105c-12.291-2.503-36.879-15.26-34.77-19.601 2.4237-4.994 8.751-5.673 11.994-5.013 3.2403 0.66008 13.389 5.4021 18.589 6.6014 0.11973 0.02857 0.24038 0.05315 0.359 0.07731 4.9938 1.0173 8.2022-1.1479 8.2022-1.1479l12.457 10.228s-3.3842 8.082-12.259 9.2267c-1.1591 0.15097-2.7251 0.0049-4.5716-0.37124" fill="#ba477a"/>
 </g>
</svg>
