<?xml version="1.0" encoding="UTF-8" standalone="no"?>
<svg id="svg4379" xmlns:rdf="http://www.w3.org/1999/02/22-rdf-syntax-ns#" xmlns="http://www.w3.org/2000/svg" height="100" viewBox="0 0 99.999997 99.999997" width="100" version="1.1" xmlns:cc="http://creativecommons.org/ns#" xmlns:dc="http://purl.org/dc/elements/1.1/">
 <metadata id="metadata20">
  <rdf:RDF>
   <cc:Work rdf:about="">
    <dc:format>image/svg+xml</dc:format>
    <dc:type rdf:resource="http://purl.org/dc/dcmitype/StillImage"/>
    <dc:title/>
   </cc:Work>
  </rdf:RDF>
 </metadata>
 <g>
  <path id="path128" d="m66.948 14.644c-0.94347 2.7526-3.939 4.22-6.6934 3.2841-2.7545-0.94536-4.2219-3.939-3.2822-6.6916l2.6197-7.6711c0.94157-2.7564 3.9352-4.2218 6.6897-3.2803 2.7582 0.94157 4.2256 3.9371 3.2841 6.6859l-2.6178 7.673" fill="#e9eae9"/>
  <path id="path130" d="m87.776 60.86c-7.122 20.863-29.815 31.996-50.677 24.872-20.867-7.126-32.004-29.813-24.878-50.683 7.126-20.866 29.815-31.998 50.681-24.874 20.868 7.1244 32.006 29.815 24.874 50.685" fill="#62a99c"/>
  <path id="path320" d="m49.876 86.436c-1.1751 0-2.3824-0.04556-3.6239-0.14427-33.302-2.61-33.013-41.4-33.013-41.4 5.5678 4.7838 11.225 6.5568 16.817 6.5568 8.0166 0 15.902-3.6448 23.209-7.2876 7.3066-3.6429 14.036-7.2876 19.739-7.2876 0.75173 0 1.4845 0.06454 2.2002 0.19932 15.346 2.8987 13.024 18.247 13.024 18.247s-8.0508 31.117-38.352 31.117m-33.218-34.168s-0.26386 30.267 29.781 32.298c1.1238 0.07593 2.2172 0.1139 3.2784 0.1139 27.345 0 34.599-24.281 34.599-24.281s2.0938-11.973-11.745-14.232c-0.64542-0.10631-1.3079-0.15566-1.9875-0.15566-5.1463 0-11.219 2.8437-17.812 5.6854-6.5928 2.8418-13.708 5.6854-20.94 5.6854-5.0457 0-10.148-1.3839-15.173-5.1141" fill="#3b7970"/>
  <path id="path322" d="m49.717 84.68c-1.0612 0-2.1546-0.03797-3.2784-0.1139-30.045-2.031-29.781-32.297-29.781-32.297 5.0248 3.7302 10.128 5.1141 15.173 5.1141 7.2326 0 14.347-2.8437 20.94-5.6854 6.5928-2.8418 12.666-5.6854 17.812-5.6854 0.67961 0 1.3421 0.04936 1.9875 0.15566 13.839 2.259 11.745 14.232 11.745 14.232s-7.2535 24.281-34.599 24.281m16.125-19.333c-6.889 0-16.595 2.9993-20.445 7.6749-4.5256 5.5089-0.17845 9.7137 7.0997 9.7137 3.0791 0 6.684-0.75173 10.365-2.4754 0.70617-0.32651 8.9183-2.5912 10.399-10.393 0.60366-3.1493-2.7639-4.5199-7.4186-4.5199" fill="#21443e"/>
  <path id="path324" d="m32.497 29.174c-4.6547 0-8.0242-1.3706-7.4205-4.518 1.4769-7.8116 9.6947-10.069 10.41-10.397 3.6789-1.7218 7.2819-2.4735 10.361-2.4735 7.2762 0 11.618 4.201 7.0864 9.7137-3.846 4.6774-13.55 7.6768-20.437 7.6749m9.6548-14.968c-1.5699 0-3.4075 0.38346-5.283 1.2624-0.37396 0.17654-4.573 1.3288-5.3343 5.321-0.30753 1.606 1.4142 2.3065 3.7966 2.3065 3.5233 0 8.4874-1.5319 10.454-3.9219 2.3121-2.819 0.08542-4.9679-3.6334-4.9679" fill="#9fd4c5"/>
  <path id="path326" d="m35.331 23.095c-2.3824 0-4.1041-0.70048-3.7966-2.3065 0.76122-3.9922 4.9603-5.1444 5.3343-5.321 1.8755-0.87892 3.7131-1.2624 5.283-1.2624 3.7188 0 5.9455 2.1489 3.6334 4.9679-1.9666 2.39-6.9307 3.9219-10.454 3.9219" fill="#cbeae0"/>
  <path id="path328" d="m18.216 35.698c-1.3516 0-2.4412-1.0896-2.4412-2.4412 0-1.3573 1.0896-2.4412 2.4412-2.4412 1.3497 0 2.4431 1.0839 2.4431 2.4412 0 1.3516-1.0934 2.4412-2.4431 2.4412" fill="#9fd4c5"/>
  <path id="path330" d="m52.496 82.737c-7.2781 0-11.625-4.2048-7.0997-9.7137 3.8498-4.6755 13.556-7.6749 20.445-7.6749 4.6547 0 8.0223 1.3706 7.4186 4.5199-1.4807 7.8021-9.6928 10.067-10.399 10.393-3.6808 1.7237-7.2857 2.4754-10.365 2.4754m10.511-11.311c-3.5214 0-8.4855 1.53-10.45 3.9219-2.3178 2.819-0.09297 4.9641 3.6277 4.9641 1.5737 0 3.4151-0.38346 5.2944-1.2605 0.36637-0.17085 4.5578-1.3326 5.321-5.3229 0.30753-1.6041-1.4142-2.3027-3.7928-2.3027" fill="#478980"/>
  <path id="path332" d="m56.184 80.311c-3.7207 0-5.9455-2.1451-3.6277-4.9641 1.9648-2.3919 6.9288-3.9219 10.45-3.9219 2.3786 0 4.1004 0.69858 3.7928 2.3027-0.76312 3.9903-4.9546 5.152-5.321 5.3229-1.8793 0.87702-3.7207 1.2605-5.2944 1.2605" fill="#85bfb2"/>
 </g>
 <path id="path376" d="m19.248 76.547s-1.2105 3.0261-1.2124 6.9157c-0.0014 5.1653 2.1317 11.85 12.066 14.983 1.549 0.48786 3.2857 0.88845 5.2333 1.1846 1.653 0.25 3.282 0.369 4.888 0.369 8.094 0 15.494-2.982 21.579-6.704 10.11-6.185 16.589-14.416 16.589-14.416-13.252 8.59-24.022 11.526-32.565 11.526-18.547 0-26.578-13.859-26.578-13.859z" fill-opacity=".28627"/>
</svg>
