<?xml version="1.0" encoding="UTF-8" standalone="no"?>
<svg id="svg4379" xmlns:rdf="http://www.w3.org/1999/02/22-rdf-syntax-ns#" xmlns="http://www.w3.org/2000/svg" height="100" viewBox="0 0 99.999997 99.999997" width="100" version="1.1" xmlns:cc="http://creativecommons.org/ns#" xmlns:dc="http://purl.org/dc/elements/1.1/">
 <metadata id="metadata20">
  <rdf:RDF>
   <cc:Work rdf:about="">
    <dc:format>image/svg+xml</dc:format>
    <dc:type rdf:resource="http://purl.org/dc/dcmitype/StillImage"/>
    <dc:title/>
   </cc:Work>
  </rdf:RDF>
 </metadata>
 <path id="path82" d="m50.262 100c-27.617-0.004-33.724-26.794-35.071-38.249 5.6308 13.712 19.116 23.33 34.801 23.33 0.15204 0 0.30586-0.0017 0.4579-0.0036 17.822-0.21643 32.6-12.789 36.283-29.474 0.50083 14.835-6.8649 44.125-36.072 44.395-0.13594 0-0.26472 0.0017-0.39888 0.0017" fill-opacity=".28627"/>
 <g>
  <path id="path124" d="m54.548 12.541c0.03398 2.7438-2.1643 4.9904-4.9081 5.028-2.742 0.02683-4.9922-2.1679-5.0208-4.9081l-0.091-7.638c-0.036-2.7421 2.16-4.9887 4.904-5.0227 2.746-0.032151 4.991 2.1661 5.023 4.9046l0.09301 7.6359" fill="#e9eae9"/>
  <path id="path126" d="m87.613 47.016c0.247 20.77-16.389 37.809-37.163 38.061-20.777 0.249-37.815-16.388-38.063-37.167-0.249-20.775 16.389-37.811 37.163-38.061 20.774-0.2488 37.815 16.388 38.063 37.167" fill="#50ace4"/>
  <path id="path306" d="m49.201 84.188c-1.0911 0-2.218-0.04293-3.3734-0.13237-31.026-2.4326-30.755-38.571-30.755-38.571 5.1872 4.4574 10.457 6.1083 15.667 6.1083 7.4677 0 14.814-3.3949 21.622-6.7898 6.8077-3.3931 13.075-6.788 18.389-6.788 0.69937 0 1.3826 0.05903 2.048 0.18423 14.299 2.7009 12.134 17 12.134 17s-7.4964 28.989-35.732 28.989m-30.942-31.829s-0.24863 28.199 27.742 30.087c1.0464 0.07154 2.0677 0.10554 3.0569 0.10554 25.474 0 32.232-22.62 32.232-22.62s1.9514-11.152-10.941-13.258c-0.60278-0.09837-1.2217-0.14488-1.8549-0.14488-4.7954 0-10.451 2.649-16.594 5.2963-6.1405 2.6472-12.769 5.2963-19.507 5.2963-4.7006 0-9.4532-1.2878-14.134-4.7632" fill="#3e7bc7"/>
  <path id="path308" d="m49.058 82.551c-0.98914 0-2.0105-0.03398-3.0569-0.10554-27.991-1.8888-27.742-30.087-27.742-30.087 4.681 3.4754 9.4335 4.7632 14.134 4.7632 6.738 0 13.367-2.649 19.507-5.2963 6.1423-2.6472 11.798-5.2963 16.594-5.2963 0.63319 0 1.2521 0.04651 1.8549 0.14488 12.893 2.1053 10.941 13.258 10.941 13.258s-6.7576 22.62-32.232 22.62m15.022-18.009c-6.416 0-15.46 2.7939-19.046 7.1493-4.2177 5.1335-0.16992 9.0489 6.611 9.0489 2.869 0 6.2264-0.69937 9.6553-2.3056 0.66002-0.30586 8.3084-2.4111 9.6911-9.6821 0.55986-2.9334-2.5757-4.2106-6.9115-4.2106" fill="#2c4ca7"/>
  <path id="path310" d="m33.014 30.843c-4.3375 0-7.4749-1.2771-6.9132-4.2123 1.3737-7.2746 9.031-9.3798 9.6982-9.6857 3.4271-1.6044 6.7827-2.3038 9.6499-2.3038 6.7809 0 10.827 3.9154 6.6074 9.0507-3.5827 4.3572-12.626 7.1511-19.042 7.1511m8.993-13.945c-1.4631 0-3.1749 0.35595-4.9207 1.1734-0.34879 0.16456-4.2571 1.2413-4.9689 4.96-0.28619 1.4953 1.3183 2.1482 3.5362 2.1482 3.2822 0 7.9095-1.4274 9.7376-3.6543 2.1554-2.6258 0.08227-4.6273-3.3842-4.6273" fill="#79d3ef"/>
  <path id="path312" d="m35.654 25.18c-2.218 0-3.8224-0.65287-3.5362-2.1482 0.71189-3.7187 4.6202-4.7954 4.9689-4.96 1.7458-0.81743 3.4575-1.1734 4.9207-1.1734 3.4665 0 5.5395 2.0015 3.3842 4.6273-1.828 2.2269-6.4553 3.6543-9.7376 3.6543" fill="#abe4f1"/>
  <path id="path314" d="m19.71 36.92c-1.2628 0-2.2734-1.016-2.2734-2.2752 0-1.2628 1.0106-2.2734 2.2734-2.2734 1.2557 0 2.2752 1.0106 2.2752 2.2734 0 1.2592-1.0195 2.2752-2.2752 2.2752" fill="#79d3ef"/>
  <path id="path316" d="m51.645 80.741c-6.7809 0-10.829-3.9154-6.611-9.0489 3.5863-4.3554 12.63-7.1493 19.046-7.1493 4.3358 0 7.4713 1.2771 6.9115 4.2106-1.3826 7.271-9.031 9.3763-9.6911 9.6821-3.4289 1.6062-6.7862 2.3056-9.6553 2.3056m9.7894-10.537c-3.2804 0-7.9024 1.4256-9.7322 3.6525-2.1589 2.6276-0.08586 4.6255 3.3806 4.6255 1.4667 0 3.1821-0.35774 4.9332-1.1752 0.34164-0.1574 4.2427-1.2413 4.9564-4.9564 0.2844-1.4953-1.32-2.1464-3.538-2.1464" fill="#428bd2"/>
  <path id="path318" d="m55.083 78.482c-3.4665 0-5.5395-1.998-3.3806-4.6255 1.8298-2.2269 6.4518-3.6525 9.7322-3.6525 2.218 0 3.8224 0.65108 3.538 2.1464-0.71368 3.7151-4.6148 4.799-4.9564 4.9564-1.7511 0.81743-3.4665 1.1752-4.9332 1.1752" fill="#5ac5ec"/>
 </g>
</svg>
