<?xml version="1.0" encoding="UTF-8" standalone="no"?>
<svg id="svg4379" xmlns:rdf="http://www.w3.org/1999/02/22-rdf-syntax-ns#" xmlns="http://www.w3.org/2000/svg" height="100" viewBox="0 0 99.999997 99.999997" width="100" version="1.1" xmlns:cc="http://creativecommons.org/ns#" xmlns:dc="http://purl.org/dc/elements/1.1/">
 <metadata id="metadata20">
  <rdf:RDF>
   <cc:Work rdf:about="">
    <dc:format>image/svg+xml</dc:format>
    <dc:type rdf:resource="http://purl.org/dc/dcmitype/StillImage"/>
    <dc:title/>
   </cc:Work>
  </rdf:RDF>
 </metadata>
 <path id="path98" d="m61.448 100c3.5469 0 5.3439-1.4588 7.3182-2.8167 5.1797-3.5632 6.7441-8.385 6.9637-12.002-0.88468 1.4897-2.067 2.8671-3.5989 4.0396-2.9826 2.2833-6.0611 3.5274-9.582 3.5274-6.2595 0-13.921-3.9291-24.942-12.93-9.7934-7.9964-15.279-13.953-17.569-19.022-0.23744 1.8881-0.20654 3.6998 0.18702 5.3651 2.3841 10.097 22.914 28.809 34.088 32.465 3.019 0.987 5.309 1.374 7.135 1.374m-30.692-70.601c0.40982-0.74158 0.79688-1.4409 1.1563-2.0881-0.74158-0.65864-1.4458-1.3742-2.0735-2.119 0.0146 0.21304 0.0374 0.42608 0.065 0.64075 0.18865 1.4116 0.49601 2.589 0.85216 3.5664" fill-opacity=".28627"/>
 <g>
  <path id="path156" d="m65.638 39.67s-7.0922 5.6968-4.4674 11.683c2.6248 5.9798 8.8746 12.486 13.101 15.815 4.2218 3.3306 6.1489 15.708-2.1402 22.052-8.2858 6.3441-17.302 4.6609-34.524-9.4031-17.229-14.067-21.127-21.828-17.741-29.528 3.3875-7.6988 14.568-27.49 14.568-27.49l31.203 16.871" fill="#a62c59"/>
  <path id="path158" d="m76.049 16.322s-28.86-14.474-31.527-15.604c-2.6671-1.1254-7.4402-1.6734-11.392 4.2218s-5.8269 10.41-6.0042 14.16c-0.17888 3.7469 4.3308 8.559 8.3476 10.745 4.0201 2.1971 28.843 12.701 28.843 12.701s5.9765 3.6575 9.7918-1.8832c3.8201-5.5456 6.9344-15.36 6.9344-15.36s1.7499-5.6025-4.9943-8.9803" fill="#fefcd1"/>
  <path id="path462" d="m67.405 42.783c2.0263 0 4.8609-0.95137 5.9391-3.516 1.2181-2.8964 3.9632-8.925 3.9632-8.925s-2.3548 3.5371-5.8106 3.5371c-0.21955 0-0.44397-0.01464-0.67166-0.04391-3.8217-0.50577-25.505-13.01-29.081-15.337-3.5859-2.3256-7.0385-9.8259-1.1465-15.158 0 0-0.0309-0.0016-0.0894-0.0016-0.49114 0-2.9387 0.13986-5.2772 2.8102-2.6232 2.9907-6.8824 10.667-6.7441 13.833 0.13009 3.1663 1.8474 5.6171 6.266 8.6095 4.4186 2.9923 29.927 13.88 31.925 14.147 0.22606 0.02927 0.47 0.04553 0.72694 0.04553m6.671-7.7101-1.9271 3.8022s-1.1368 2.789-4.791 2.789c-0.1171 0-0.23419-0.0033-0.35454-0.0098-3.9372-0.18539-30.979-14.243-30.979-14.243s-6.4075-4.1177-5.3065-10.184c0 0 2.6085-4.9715 4.134-6.8531 0 0-1.9125 6.4937 0.97252 9.4893 2.8899 2.9972 31.203 17.17 32.88 17.191 0.0667 0.0016 0.1366 0.0016 0.20653 0.0016 1.6686 0 3.9697-0.26346 5.165-1.984" fill="#fdf9ad"/>
  <path id="path464" d="m67.358 41.664c3.6542 0 4.791-2.789 4.791-2.789l1.9271-3.8022c-1.1953 1.7206-3.4965 1.984-5.165 1.984-0.0699 0-0.13986 0-0.20654-0.0016-1.6767-0.02114-29.99-14.194-32.88-17.191-2.885-2.9956-0.97251-9.4893-0.97251-9.4893-1.5254 1.8816-4.134 6.8531-4.134 6.8531-1.101 6.066 5.3065 10.184 5.3065 10.184s27.042 14.057 30.979 14.243c0.12038 0.0065 0.23744 0.0098 0.35453 0.0098" fill="#fcf380"/>
  <path id="path466" d="m59.142 46.276 1.6994-3.0558s-22.999-9.6389-25.339-10.572c-2.337-0.93348-3.4802-2.132-3.4802-2.132l-1.488 2.8882s2.615 1.7173 3.5355 2.1955c6.0432 3.1419 25.072 10.676 25.072 10.676" fill="#7a172d"/>
  <path id="path468" d="m61.972 90.699c7.5768 0 11.626-5.3455 11.626-5.3455-2.6703 1.5677-5.4513 2.2345-8.2631 2.2345-13.823 0-28.364-16.16-33.81-21.145-6.5522-5.9912-6.7783-11.27-6.0286-15.989 0.75134-4.7162 3.355-9.9869 3.355-9.9869s-1.5498 1.9531-5.0414 7.2206c-3.4867 5.2691-3.1956 11.629 0.75784 17.217 3.9486 5.5879 24.009 23.371 33.859 25.419 1.2571 0.26183 2.4378 0.37567 3.5453 0.37567" fill="#7a172d"/>
  <path id="path470" d="m73.094 81.794c0.60985 0 1.0733-0.16588 1.3531-0.52203 3.2298-4.1112 1.1986-9.7527-0.69605-12.228-1.8978-2.4719-10.093-9.1152-13.249-13.025-3.155-3.9095-2.615-7.6922-2.615-7.6922l-13.802-6.3327s-5.4431 6.1896-2.7581 14.178c2.4443 7.2987 25.345 25.623 31.768 25.622" fill="#ba477a"/>
 </g>
</svg>
