<?xml version="1.0" encoding="UTF-8" standalone="no"?>
<svg id="svg4379" xmlns:rdf="http://www.w3.org/1999/02/22-rdf-syntax-ns#" xmlns="http://www.w3.org/2000/svg" height="100" viewBox="0 0 99.999997 99.999997" width="100" version="1.1" xmlns:cc="http://creativecommons.org/ns#" xmlns:dc="http://purl.org/dc/elements/1.1/">
 <metadata id="metadata20">
  <rdf:RDF>
   <cc:Work rdf:about="">
    <dc:format>image/svg+xml</dc:format>
    <dc:type rdf:resource="http://purl.org/dc/dcmitype/StillImage"/>
    <dc:title/>
   </cc:Work>
  </rdf:RDF>
 </metadata>
 <path id="path80" d="m39.805 100c21.807 0 36.295-16.458 44.1-28.812-7.7573 10.34-19.915 16.215-32.498 16.215-5.858 0-11.809-1.2734-17.45-3.9634-11.867-5.658-19.732-16.328-22.262-28.271-3.7532 9.752-12.074 39.059 21.019 44.265 2.444 0.384 4.807 0.566 7.091 0.566m49.647-38.925c0.94846-2.0259 1.4167-3.2491 1.4167-3.2491l-0.32491-0.07167c-0.31297 1.1133-0.67849 2.2218-1.0918 3.3208" fill-opacity=".28627"/>
 <g>
  <path id="path136" d="m62.792 10.501c-1.271 2.6686-0.14335 5.8651 2.5324 7.1481 2.6734 1.2662 5.8747 0.1338 7.1481-2.5396l3.544-7.44c1.275-2.6757 0.143-5.8747-2.533-7.1481-2.675-1.2733-5.87-0.13614-7.143 2.5348l-3.5478 7.4443" fill="#e9eae9"/>
  <path id="path138" d="m14.772 29.305c-9.6516 20.248-1.058 44.485 19.184 54.134 20.25 9.657 44.487 1.061 54.141-19.184 9.652-20.25 1.061-44.482-19.186-54.131-20.248-9.6522-44.487-1.0683-54.139 19.181" fill="#532c94"/>
  <path id="path292" d="m51.958 84.892c1.1826 0 2.4058-0.04778 3.6576-0.14572 33.59-2.6304 33.299-41.761 33.299-41.761-5.6167 4.8259-11.322 6.6129-16.965 6.6129-8.087 0-16.043-3.6744-23.413-7.3511-7.3703-3.6744-14.158-7.3511-19.91-7.3511-0.75733 0-1.4979 0.0645-2.217 0.20068-15.479 2.9218-13.14 18.405-13.14 18.405s8.1156 31.39 38.688 31.39m33.507-34.465s0.26519 30.53-30.038 32.577c-1.1348 0.07645-2.2433 0.1123-3.316 0.1123-27.582 0-34.897-24.493-34.897-24.493s-2.1095-12.072 11.852-14.349c0.65221-0.1075 1.3212-0.15767 2.0044-0.15767 5.1938 0 11.317 2.8669 17.968 5.7337 6.6488 2.8669 13.825 5.7337 21.122 5.7337 5.0887 0 10.237-1.3952 15.304-5.158" fill="#2e286d"/>
  <path id="path294" d="m52.111 83.117c1.0727 0 2.1812-0.03583 3.316-0.1123 30.303-2.0474 30.038-32.577 30.038-32.577-5.0672 3.7628-10.216 5.158-15.304 5.158-7.2962 0-14.473-2.8669-21.122-5.7337-6.6511-2.8669-12.774-5.7337-17.968-5.7337-0.68327 0-1.3522 0.05017-2.0044 0.15767-13.962 2.2768-11.852 14.349-11.852 14.349s7.3153 24.493 34.897 24.493m-16.264-19.499c6.9498 0 16.745 3.0269 20.625 7.7453 4.5679 5.5546 0.18635 9.7951-7.1552 9.7975-3.1058 0-6.7419-0.75972-10.457-2.5013-0.71433-0.32491-9.002-2.6089-10.493-10.481-0.60682-3.1774 2.788-4.5607 7.4801-4.5607" fill="#19183a"/>
  <path id="path296" d="m69.486 27.131c4.6969 0 8.0965-1.3833 7.4873-4.5607-1.488-7.876-9.778-10.158-10.497-10.487-3.71-1.737-7.346-2.4946-10.45-2.4946-7.344 0-11.726 4.2382-7.1576 9.7999 3.8798 4.7184 13.67 7.7429 20.618 7.7429m-9.735-15.103c1.5863 0 3.4379 0.38703 5.33 1.2734 0.37508 0.18396 4.6133 1.3403 5.3754 5.373 0.31058 1.6198-1.4239 2.3246-3.8249 2.3246-3.5525 0-8.5648-1.5457-10.548-3.9563-2.3293-2.8454-0.086-5.0146 3.6672-5.0146" fill="#8751ae"/>
  <path id="path298" d="m66.631 20.999c2.401 0 4.1355-0.70477 3.8249-2.3246-0.76211-4.0327-5.0003-5.189-5.3754-5.373-1.8921-0.88634-3.7437-1.2734-5.33-1.2734-3.7532 0-5.9965 2.1693-3.6672 5.0146 1.9829 2.4106 6.9952 3.9563 10.548 3.9563" fill="#c091cf"/>
  <path id="path300" d="m83.895 33.711c1.3618 0 2.4607-1.1014 2.4607-2.4655 0-1.3689-1.099-2.4583-2.4607-2.4583-1.3642 0-2.4655 1.0894-2.4655 2.4583 0 1.3642 1.1014 2.4655 2.4655 2.4655" fill="#8751ae"/>
  <path id="path302" d="m49.318 81.162c7.3416-0.0023 11.723-4.243 7.1552-9.7975-3.8798-4.7184-13.675-7.7453-20.625-7.7453-4.6921 0-8.087 1.3833-7.4801 4.5607 1.4908 7.872 9.7784 10.156 10.493 10.481 3.715 1.7416 7.3511 2.5013 10.457 2.5013m-10.6-11.412c3.5525 0 8.5552 1.5433 10.536 3.9563 2.3365 2.843 0.09318 5.0099-3.66 5.0099-1.5863 0-3.445-0.38703-5.3419-1.2758-0.36792-0.16963-4.5966-1.345-5.3682-5.3658-0.3058-1.6198 1.4334-2.3246 3.8344-2.3246" fill="#3b2a7e"/>
  <path id="path304" d="m45.593 78.716c3.7532 0 5.9965-2.1669 3.66-5.0099-1.9805-2.4129-6.9832-3.9563-10.536-3.9563-2.401 0-4.1402 0.70477-3.8344 2.3246 0.77167 4.0208 5.0003 5.1962 5.3682 5.3658 1.8969 0.88873 3.7556 1.2758 5.3419 1.2758" fill="#6e349c"/>
 </g>
</svg>
