<?xml version="1.0" encoding="UTF-8" standalone="no"?>
<svg id="svg4379" xmlns:rdf="http://www.w3.org/1999/02/22-rdf-syntax-ns#" xmlns="http://www.w3.org/2000/svg" height="100" viewBox="0 0 99.999997 99.999997" width="100" version="1.1" xmlns:cc="http://creativecommons.org/ns#" xmlns:dc="http://purl.org/dc/elements/1.1/">
 <metadata id="metadata20">
  <rdf:RDF>
   <cc:Work rdf:about="">
    <dc:format>image/svg+xml</dc:format>
    <dc:type rdf:resource="http://purl.org/dc/dcmitype/StillImage"/>
    <dc:title/>
   </cc:Work>
  </rdf:RDF>
 </metadata>
 <path id="path76" d="m40.498 100c-1.998 0-4.0619-0.15754-6.2015-0.49453-26.937-4.237-22.484-26.746-19.094-36.704 5.2144 11.902 16.405 20.816 30.242 22.491 1.5494 0.18544 3.0848 0.27716 4.6062 0.27716 15.141 0 28.654-9.049 34.649-22.531l0.4347 0.09766s-14.126 36.864-44.635 36.864" fill-opacity=".28627"/>
 <g>
  <path id="path120" d="m59.202 13.269c-0.33302 2.7438-2.8296 4.704-5.5794 4.3749-2.7458-0.33899-4.7059-2.8355-4.3729-5.5813l0.92723-7.6512c0.33299-2.7498 2.8295-4.7059 5.5753-4.3749 2.7538 0.335 4.7079 2.8315 4.375 5.5793l-0.92524 7.6531" fill="#e9eae9"/>
  <path id="path122" d="m87.693 52.159c-2.518 20.818-21.436 35.649-42.25 33.133-20.822-2.519-35.653-21.434-33.137-42.254 2.521-20.82 21.438-35.649 42.254-33.131 20.82 2.519 35.654 21.434 33.133 42.252" fill="#dc2125"/>
  <path id="path250" d="m49.138 83.511c-1.0848 0-2.2014-0.0419-3.35-0.1316-30.764-2.4128-30.499-38.25-30.499-38.25 5.1446 4.4188 10.367 6.0579 15.534 6.0579 7.4079 0 14.694-3.3679 21.444-6.7339 6.7518-3.3679 12.969-6.7339 18.238-6.7339 0.69393 0 1.3719 0.05783 2.0319 0.18345 14.178 2.678 12.034 16.858 12.034 16.858s-7.4358 28.75-35.432 28.75m-30.689-31.564s-0.24726 27.959 27.512 29.837c1.0409 0.0698 2.0519 0.10364 3.0349 0.10364 25.259 0 31.961-22.431 31.961-22.431s1.9322-11.061-10.852-13.147c-0.59622-0.0977-1.2104-0.14357-1.8365-0.14357-4.7558 0-10.365 2.6262-16.457 5.2523-6.0898 2.6262-12.664 5.2523-19.346 5.2523-4.6621 0-9.376-1.2762-14.016-4.7239" fill="#c41e25"/>
  <path id="path252" d="m48.997 81.886c-0.98306 0-1.994-0.034-3.0349-0.10364-27.759-1.8784-27.512-29.837-27.512-29.837 4.6402 3.4477 9.3541 4.7239 14.016 4.7239 6.682 0 13.256-2.6262 19.346-5.2523 6.0918-2.6262 11.701-5.2523 16.457-5.2523 0.62612 0 1.2403 0.04587 1.8365 0.14357 12.784 2.0858 10.852 13.147 10.852 13.147s-6.702 22.431-31.961 22.431m14.892-17.857c-6.363 0-15.332 2.7717-18.886 7.0908-4.1835 5.0908-0.1695 8.9732 6.5544 8.9732 2.8455 0 6.1756-0.69393 9.5774-2.2872 0.65605-0.3031 8.2414-2.3928 9.6073-9.6013 0.55633-2.9093-2.5544-4.1755-6.8535-4.1755" fill="#a01b21"/>
  <path id="path254" d="m33.082 30.607c-4.3031 0-7.4138-1.2662-6.8575-4.1755 1.3639-7.2125 8.9592-9.3042 9.6153-9.6053 3.4018-1.5912 6.7299-2.2852 9.5754-2.2852 6.7239 0 10.734 3.8824 6.5504 8.9732-3.5534 4.3231-12.521 7.0928-18.884 7.0928m8.9174-13.829c-1.4517 0-3.1486 0.35295-4.8814 1.1645-0.34298 0.16351-4.2234 1.2263-4.9253 4.9173-0.28315 1.4856 1.3041 2.1316 3.5016 2.1316 3.2563 0 7.8466-1.4178 9.6651-3.6252 2.1336-2.6042 0.0758-4.5883-3.36-4.5883" fill="#ec451e"/>
  <path id="path256" d="m35.694 24.992c-2.1974 0-3.7847-0.64607-3.5016-2.1316 0.70192-3.691 4.5823-4.7538 4.9253-4.9173 1.7328-0.81158 3.4298-1.1645 4.8814-1.1645 3.4357 0 5.4936 1.9841 3.36 4.5883-1.8186 2.2074-6.4088 3.6252-9.6651 3.6252" fill="#f48912"/>
  <path id="path258" d="m19.888 36.635c-1.2483 0-2.2553-1.007-2.2553-2.2573 0-1.2543 1.007-2.2533 2.2553-2.2533s2.2593 0.99902 2.2593 2.2533c0 1.2503-1.011 2.2573-2.2593 2.2573" fill="#ec451e"/>
  <path id="path260" d="m51.557 80.093c-6.7239 0-10.738-3.8824-6.5544-8.9732 3.5534-4.3191 12.523-7.0908 18.886-7.0908 4.2992 0 7.4099 1.2662 6.8535 4.1755-1.3659 7.2085-8.9513 9.2982-9.6073 9.6013-3.4018 1.5932-6.7319 2.2872-9.5774 2.2872m9.707-10.451c-3.2543 0-7.8366 1.4118-9.6492 3.6212-2.1416 2.6062-0.0857 4.5903 3.354 4.5903 1.4537 0 3.1526-0.35294 4.8894-1.1645 0.33699-0.15952 4.2114-1.2343 4.9153-4.9173 0.28317-1.4836-1.3101-2.1296-3.5095-2.1296" fill="#cd1e25"/>
  <path id="path262" d="m54.969 77.854c-3.4397 0-5.4956-1.9841-3.354-4.5903 1.8126-2.2094 6.3949-3.6212 9.6492-3.6212 2.1994 0 3.7927 0.64607 3.5095 2.1296-0.70389 3.683-4.5783 4.7578-4.9153 4.9173-1.7368 0.81158-3.4358 1.1645-4.8894 1.1645" fill="#e42024"/>
 </g>
</svg>
