<?xml version="1.0" encoding="UTF-8" standalone="no"?>
<svg id="svg4379" xmlns:rdf="http://www.w3.org/1999/02/22-rdf-syntax-ns#" xmlns="http://www.w3.org/2000/svg" height="100" viewBox="0 0 99.999997 99.999997" width="100" version="1.1" xmlns:cc="http://creativecommons.org/ns#" xmlns:dc="http://purl.org/dc/elements/1.1/">
 <metadata id="metadata20">
  <rdf:RDF>
   <cc:Work rdf:about="">
    <dc:format>image/svg+xml</dc:format>
    <dc:type rdf:resource="http://purl.org/dc/dcmitype/StillImage"/>
    <dc:title/>
   </cc:Work>
  </rdf:RDF>
 </metadata>
 <path id="path92" d="m55.749 100c-20.501-18.279-21.356-57.959-21.356-57.959l0.15278-0.14756c0.96522 14.622 6.7479 31.589 23.648 46.968 1.9322-4.0987 3.4338-8.0846 4.5657-11.954-2.358 13.507-7.011 23.093-7.011 23.093" fill-opacity=".28627"/>
 <path id="path180" d="m41.541 5.0504s-24.276 46.567 16.652 83.811c23.589-50.061-16.652-83.811-16.652-83.811" fill="#ec1d27"/>
 <g fill="#e9eae9">
  <path id="path182" d="m42.696 10.84-3.8626 0.76558 0.33158-8.437 1.9287-0.38019 1.6024 8.0516"/>
  <path id="path184" d="m42.696 10.84 3.8574-0.76211-3.5328-7.6749-1.927 0.3854 1.6024 8.0516"/>
  <path id="path186" d="m43.17 6.0122c0.1597 0.80204-0.35935 1.578-1.1614 1.7412-0.80204 0.15971-1.5798-0.36109-1.7395-1.1666l-0.95482-4.8209c-0.1597-0.8003 0.36283-1.578 1.1631-1.736 0.79856-0.16319 1.5798 0.35936 1.7395 1.1631l0.95307 4.8192"/>
 </g>
 <g>
  <path id="path410" d="m57.99 86.369s-9.3033-6.1698-15.838-23.061c0 0 2.2898 1.3662 5.1282 1.3662 1.7308 0 3.6665-0.50865 5.4129-2.1422 4.6091-4.3157 1.6388-34.726-11.171-49.529l4.3331-0.88537s2.137 1.743 4.4998 6.0726c0 0 25.905 34.021 7.635 68.179m-10.454-16.639c3.3852 6.6767 9.4405 13.886 9.4405 13.886 12.13-28.399-2.7498-56.67-2.7498-56.67 12.241 42.131-5.5205 42.784-6.6368 42.784h-0.0538" fill="#e11d25"/>
  <path id="path412" d="m56.976 83.617s-6.0552-7.2097-9.4405-13.886h0.0538c1.1162 0 18.877-0.65274 6.6368-42.784 0 0 14.879 28.271 2.7498 56.67m1.1163-18.659s-1.2551 4.6855-6.5517 6.6073c0 0 2.229 4.9963 4.0345 6.5587 0 0 3.3835-7.2131 2.5172-13.166" fill="#cd1e25"/>
  <path id="path414" d="m55.575 78.124c-1.8055-1.5624-4.0345-6.5587-4.0345-6.5587 5.2966-1.9218 6.5517-6.6073 6.5517-6.6073 0.86627 5.9528-2.5172 13.166-2.5172 13.166" fill="#ac1c22"/>
  <path id="path416" d="m46.743 56.06c-3.2273 0-6.708-5.2393-7.951-12.163-1.302-7.2999 0.36977-13.711 3.7376-14.31 0.17187-0.03125 0.34546-0.04514 0.51906-0.04514 3.2342 0 6.7097 5.2376 7.951 12.161 1.309 7.3017-0.36283 13.709-3.7376 14.312-0.17187 0.02952-0.34546 0.04514-0.51906 0.04514m-3.9599-24.54c-0.0746 0-0.14756 0.0052-0.22047 0.0191-1.4339 0.25519-2.1457 2.9842-1.5902 6.0882 0.52601 2.946 2.0068 5.1803 3.3818 5.1803 0.0746 0 0.14756-0.0069 0.22221-0.02083 1.4374-0.25693 2.1492-2.9807 1.5919-6.0917-0.52774-2.946-2.0086-5.1751-3.3852-5.1751" fill="#f03658"/>
  <path id="path418" d="m44.354 42.807c-1.3749 0-2.8557-2.2342-3.3818-5.1803-0.55553-3.104 0.15624-5.833 1.5902-6.0882 0.0729-0.01389 0.14583-0.0191 0.22047-0.0191 1.3767 0 2.8575 2.229 3.3852 5.1751 0.55726 3.1109-0.1545 5.8347-1.5919 6.0917-0.0746 0.01389-0.14757 0.02083-0.22221 0.02083" fill="#f57699"/>
 </g>
 <g fill="#d7d7d8">
  <path id="path420" d="m41.469 10.555s-0.0469-1.243-0.10937-2.8176c0.11458 0.02951 0.2361 0.04514 0.35763 0.04514 0.0973 0 0.19443-0.01042 0.29165-0.02951 0.0243-0.0052 0.0469-0.01042 0.0694-0.01562l0.50866 2.5554-1.118 0.26214"/>
  <path id="path422" d="m42.587 10.293-0.50866-2.5554c0.76211-0.1927 1.2465-0.94786 1.092-1.7256l-0.61282-3.1023 0.2413-0.05902 3.0311 6.6837-3.2429 0.75864"/>
  <path id="path424" d="m41.717 7.7829c-0.12148 0-0.24305-0.01562-0.35763-0.04514-0.10416-2.578-0.24998-6.0465-0.3038-6.4285-0.092-0.61628-0.3906-0.9253-0.3906-0.9253 0.0833-0.02604 0.16318-0.03646 0.23957-0.03646 0.6944 0 1.0885 0.91488 1.0885 0.91488l0.17012 1.7395 0.39408-0.09201 0.61282 3.1023c0.1545 0.77774-0.32985 1.5329-1.092 1.7256-0.0225 0.0052-0.0452 0.01042-0.0694 0.01562-0.0973 0.0191-0.19445 0.02951-0.29166 0.02951"/>
 </g>
</svg>
