<?xml version="1.0" encoding="UTF-8" standalone="no"?>
<svg id="svg4379" xmlns:rdf="http://www.w3.org/1999/02/22-rdf-syntax-ns#" xmlns="http://www.w3.org/2000/svg" height="100" viewBox="0 0 99.999997 99.999997" width="100" version="1.1" xmlns:cc="http://creativecommons.org/ns#" xmlns:dc="http://purl.org/dc/elements/1.1/">
 <metadata id="metadata20">
  <rdf:RDF>
   <cc:Work rdf:about="">
    <dc:format>image/svg+xml</dc:format>
    <dc:type rdf:resource="http://purl.org/dc/dcmitype/StillImage"/>
    <dc:title/>
   </cc:Work>
  </rdf:RDF>
 </metadata>
 <path id="path96" d="m47.268 95.608c-12.214 0-26.327-2.3357-33.523-5.7459-9.1589-4.34-10.126-9.595-10.092-11.764 4.7513 6.2758 14.57 9.6188 33.165 10.877 4.2414 0.28675 8.0417 0.43013 11.443 0.43013 17.165 0 24.172-3.6824 26.864-11.343 2.2541-6.4138 5.9619-20.829 7.9891-28.924 0.22323 0.0072 0.44646 0.0091 0.66787 0.0091 3.9818 0 7.9891-0.95462 9.8639-3.1597 2.2432-2.637 3.9564-6.5372 5.2305-12.12 0.26497 1.8276-0.0908 3.6461-0.2323 4.9673-0.32123 2.9964-2.0635 10.719-7.3557 14.581-3.7241 2.7205-6.6406 3.1216-8.0381 3.1216-0.58621 0-0.90381-0.07078-0.90381-0.07078l-0.37568 2.657c-1.726 6.5826-5.7713 27.337-15.751 33.2-3.9238 2.3049-11.038 3.2867-18.951 3.2849" fill-opacity=".28627"/>
 <g>
  <path id="path152" d="m44.869 32.926s1.49 10.416-5.4555 13.39c-6.9455 2.9782-17.361 3.5318-23.561 3.0054-6.2016-0.524-17.608 8.405-15.624 20.309 1.9833 11.903 10.929 17.609 36.589 19.344 25.659 1.735 35.084-1.735 38.307-10.912s9.423-34.721 9.423-34.721l-39.679-10.415" fill="#a62c59"/>
  <path id="path154" d="m54.53 4.9837s35.806 10.583 38.947 11.74c3.1452 1.1561 7.6098 4.4628 6.2831 12.564-1.3212 8.0998-3.3031 13.392-6.1143 16.699-2.8131 3.3067-10.419 3.804-15.544 2.4809-5.1234-1.3249-34.388-12.073-34.388-12.073s-7.9383-1.6334-6.7804-9.3303c1.1597-7.6969 6.2831-18.445 6.2831-18.445s2.9528-6.1161 11.314-3.637" fill="#fefcd1"/>
  <path id="path452" d="m85.56 47.648c-1.3612 0-2.8965-0.13975-4.6497-0.41198-6.273-0.975-37.295-12.178-39.255-13.568-1.9564-1.3956-4.2758-4.9183-2.9891-8.4228 1.2867-3.51 3.784-10.978 3.784-10.978s-0.92559 5.637 2.8112 8.294c3.7368 2.6588 32.749 9.3484 37.751 10.223 0.47187 0.08348 0.98185 0.12523 1.5154 0.12523 5.1161 0 12.495-3.8639 11.762-12.39 0 0 2.5426 2.0762 2.3975 6.7985-0.13975 4.7241-2.6515 14.857-5.343 17.503-1.9328 1.9074-4.2795 2.8258-7.784 2.8276m-44.137-26.644-1.401 4.871s-1.3557 3.5608 2.225 6.5916c3.5808 3.0272 38.515 12.713 38.515 12.713s1.0454 0.18875 2.5789 0.18875c2.9455 0 7.6896-0.6951 10.296-4.7513 0 0 1.7532-6.4428 1.9528-9.3194 0 0-3.5953 7.2051-8.5372 7.4737-0.0599 0.0037-0.12522 0.0054-0.19419 0.0054-5.6225 0-40.902-10.367-42.363-11.695-1.4773-1.343-3.4337-3.5118-3.0726-6.078" fill="#fdf9ad"/>
  <path id="path454" d="m83.341 45.368c-1.5336 0-2.5789-0.18875-2.5789-0.18875s-34.935-9.686-38.515-12.713c-3.5808-3.0308-2.225-6.5916-2.225-6.5916l1.4011-4.8711c-0.36116 2.5662 1.5953 4.735 3.0726 6.078 1.461 1.3285 36.74 11.695 42.363 11.695 0.069 0 0.13431-0.0018 0.19419-0.0054 4.9419-0.2686 8.5372-7.4737 8.5372-7.4737-0.19964 2.8766-1.9528 9.3194-1.9528 9.3194-2.6062 4.0562-7.3502 4.7513-10.296 4.7513" fill="#fcf380"/>
  <path id="path456" d="m80.682 54.842s-3.666-0.62069-4.8584-0.951c-7.808-2.167-30.474-11.031-30.474-11.031l0.98729-4.0363s27.837 10.256 30.631 11.339c2.2886 0.88203 4.02 0.96188 4.5717 0.96188 0.1216 0 0.18512-0.0037 0.18512-0.0037l-1.0436 3.7205" fill="#7a172d"/>
  <path id="path458" d="m48.526 87.858c-12.784 0-30.989-1.6679-38.267-6.0762-10.234-6.207-9.1738-16.621-9.1738-16.621 4.7876 16.014 26.59 17.786 41.25 17.786 2.0835 0 4.0236-0.0363 5.7477-0.07259 1.7241-0.03448 3.2341-0.07078 4.4628-0.07078 0.16878 0 0.33394 0 0.49183 0.0018 0.10889 0.0018 0.21597 0.0018 0.32486 0.0018 10.327 0 14.744-4.3702 17.884-9.0308 3.1706-4.7187 5.1724-11.423 5.1724-11.423s-0.2323 2.9619-1.4646 10.376c-1.2305 7.412-6.6425 12.711-14.612 14.372-2.3067 0.48094-6.6116 0.7568-11.817 0.7568" fill="#7a172d"/>
  <path id="path460" d="m36.849 68.127c-14.822 0-33.544-3.0018-33.19-7.2105 0.51905-6.196 6.8584-9.4591 10.512-10.078 1.1579-0.19419 3.2033-0.24138 5.6479-0.24138 1.1379 0 2.3648 0.01089 3.6261 0.01997 1.2668 0.01089 2.5681 0.02178 3.8566 0.02178 3.3775 0 6.666-0.07078 8.9619-0.39927 5.9201-0.8421 8.5172-4.5735 8.5172-4.5735l17.141 5.669s-0.27586 9.8058-9.0889 14.584c-2.8312 1.5354-8.9709 2.2069-15.984 2.2069" fill="#ba477a"/>
 </g>
</svg>
